%TF.GenerationSoftware,KiCad,Pcbnew,8.0.3*%
%TF.CreationDate,2024-06-23T17:04:57+02:00*%
%TF.ProjectId,Interface,496e7465-7266-4616-9365-2e6b69636164,rev?*%
%TF.SameCoordinates,Original*%
%TF.FileFunction,Legend,Bot*%
%TF.FilePolarity,Positive*%
%FSLAX46Y46*%
G04 Gerber Fmt 4.6, Leading zero omitted, Abs format (unit mm)*
G04 Created by KiCad (PCBNEW 8.0.3) date 2024-06-23 17:04:57*
%MOMM*%
%LPD*%
G01*
G04 APERTURE LIST*
%ADD10C,0.150000*%
%ADD11C,0.400000*%
%ADD12C,0.120000*%
%ADD13C,0.010000*%
%ADD14C,0.100000*%
G04 APERTURE END LIST*
D10*
X128889411Y-76569820D02*
X129460839Y-76569820D01*
X129175125Y-76569820D02*
X129175125Y-75569820D01*
X129175125Y-75569820D02*
X129270363Y-75712677D01*
X129270363Y-75712677D02*
X129365601Y-75807915D01*
X129365601Y-75807915D02*
X129460839Y-75855534D01*
X128508458Y-75665058D02*
X128460839Y-75617439D01*
X128460839Y-75617439D02*
X128365601Y-75569820D01*
X128365601Y-75569820D02*
X128127506Y-75569820D01*
X128127506Y-75569820D02*
X128032268Y-75617439D01*
X128032268Y-75617439D02*
X127984649Y-75665058D01*
X127984649Y-75665058D02*
X127937030Y-75760296D01*
X127937030Y-75760296D02*
X127937030Y-75855534D01*
X127937030Y-75855534D02*
X127984649Y-75998391D01*
X127984649Y-75998391D02*
X128556077Y-76569820D01*
X128556077Y-76569820D02*
X127937030Y-76569820D01*
X127651315Y-75569820D02*
X127317982Y-76569820D01*
X127317982Y-76569820D02*
X126984649Y-75569820D01*
X134617439Y-79110588D02*
X134569820Y-79015350D01*
X134569820Y-79015350D02*
X134569820Y-78872493D01*
X134569820Y-78872493D02*
X134617439Y-78729636D01*
X134617439Y-78729636D02*
X134712677Y-78634398D01*
X134712677Y-78634398D02*
X134807915Y-78586779D01*
X134807915Y-78586779D02*
X134998391Y-78539160D01*
X134998391Y-78539160D02*
X135141248Y-78539160D01*
X135141248Y-78539160D02*
X135331724Y-78586779D01*
X135331724Y-78586779D02*
X135426962Y-78634398D01*
X135426962Y-78634398D02*
X135522201Y-78729636D01*
X135522201Y-78729636D02*
X135569820Y-78872493D01*
X135569820Y-78872493D02*
X135569820Y-78967731D01*
X135569820Y-78967731D02*
X135522201Y-79110588D01*
X135522201Y-79110588D02*
X135474581Y-79158207D01*
X135474581Y-79158207D02*
X135141248Y-79158207D01*
X135141248Y-79158207D02*
X135141248Y-78967731D01*
X135569820Y-79586779D02*
X134569820Y-79586779D01*
X134569820Y-79586779D02*
X135569820Y-80158207D01*
X135569820Y-80158207D02*
X134569820Y-80158207D01*
X135569820Y-80634398D02*
X134569820Y-80634398D01*
X134569820Y-80634398D02*
X134569820Y-80872493D01*
X134569820Y-80872493D02*
X134617439Y-81015350D01*
X134617439Y-81015350D02*
X134712677Y-81110588D01*
X134712677Y-81110588D02*
X134807915Y-81158207D01*
X134807915Y-81158207D02*
X134998391Y-81205826D01*
X134998391Y-81205826D02*
X135141248Y-81205826D01*
X135141248Y-81205826D02*
X135331724Y-81158207D01*
X135331724Y-81158207D02*
X135426962Y-81110588D01*
X135426962Y-81110588D02*
X135522201Y-81015350D01*
X135522201Y-81015350D02*
X135569820Y-80872493D01*
X135569820Y-80872493D02*
X135569820Y-80634398D01*
X132663220Y-97069819D02*
X132663220Y-96069819D01*
X132663220Y-96450771D02*
X132567982Y-96403152D01*
X132567982Y-96403152D02*
X132377506Y-96403152D01*
X132377506Y-96403152D02*
X132282268Y-96450771D01*
X132282268Y-96450771D02*
X132234649Y-96498390D01*
X132234649Y-96498390D02*
X132187030Y-96593628D01*
X132187030Y-96593628D02*
X132187030Y-96879342D01*
X132187030Y-96879342D02*
X132234649Y-96974580D01*
X132234649Y-96974580D02*
X132282268Y-97022200D01*
X132282268Y-97022200D02*
X132377506Y-97069819D01*
X132377506Y-97069819D02*
X132567982Y-97069819D01*
X132567982Y-97069819D02*
X132663220Y-97022200D01*
X131853696Y-96403152D02*
X131615601Y-97069819D01*
X131377506Y-96403152D02*
X131615601Y-97069819D01*
X131615601Y-97069819D02*
X131710839Y-97307914D01*
X131710839Y-97307914D02*
X131758458Y-97355533D01*
X131758458Y-97355533D02*
X131853696Y-97403152D01*
X130234648Y-96546009D02*
X129901315Y-96546009D01*
X129758458Y-97069819D02*
X130234648Y-97069819D01*
X130234648Y-97069819D02*
X130234648Y-96069819D01*
X130234648Y-96069819D02*
X129758458Y-96069819D01*
X129187029Y-97069819D02*
X129282267Y-97022200D01*
X129282267Y-97022200D02*
X129329886Y-96926961D01*
X129329886Y-96926961D02*
X129329886Y-96069819D01*
X128425124Y-97022200D02*
X128520362Y-97069819D01*
X128520362Y-97069819D02*
X128710838Y-97069819D01*
X128710838Y-97069819D02*
X128806076Y-97022200D01*
X128806076Y-97022200D02*
X128853695Y-96926961D01*
X128853695Y-96926961D02*
X128853695Y-96546009D01*
X128853695Y-96546009D02*
X128806076Y-96450771D01*
X128806076Y-96450771D02*
X128710838Y-96403152D01*
X128710838Y-96403152D02*
X128520362Y-96403152D01*
X128520362Y-96403152D02*
X128425124Y-96450771D01*
X128425124Y-96450771D02*
X128377505Y-96546009D01*
X128377505Y-96546009D02*
X128377505Y-96641247D01*
X128377505Y-96641247D02*
X128853695Y-96736485D01*
X127520362Y-97022200D02*
X127615600Y-97069819D01*
X127615600Y-97069819D02*
X127806076Y-97069819D01*
X127806076Y-97069819D02*
X127901314Y-97022200D01*
X127901314Y-97022200D02*
X127948933Y-96974580D01*
X127948933Y-96974580D02*
X127996552Y-96879342D01*
X127996552Y-96879342D02*
X127996552Y-96593628D01*
X127996552Y-96593628D02*
X127948933Y-96498390D01*
X127948933Y-96498390D02*
X127901314Y-96450771D01*
X127901314Y-96450771D02*
X127806076Y-96403152D01*
X127806076Y-96403152D02*
X127615600Y-96403152D01*
X127615600Y-96403152D02*
X127520362Y-96450771D01*
X127234647Y-96403152D02*
X126853695Y-96403152D01*
X127091790Y-96069819D02*
X127091790Y-96926961D01*
X127091790Y-96926961D02*
X127044171Y-97022200D01*
X127044171Y-97022200D02*
X126948933Y-97069819D01*
X126948933Y-97069819D02*
X126853695Y-97069819D01*
X126520361Y-97069819D02*
X126520361Y-96403152D01*
X126520361Y-96593628D02*
X126472742Y-96498390D01*
X126472742Y-96498390D02*
X126425123Y-96450771D01*
X126425123Y-96450771D02*
X126329885Y-96403152D01*
X126329885Y-96403152D02*
X126234647Y-96403152D01*
X125758456Y-97069819D02*
X125853694Y-97022200D01*
X125853694Y-97022200D02*
X125901313Y-96974580D01*
X125901313Y-96974580D02*
X125948932Y-96879342D01*
X125948932Y-96879342D02*
X125948932Y-96593628D01*
X125948932Y-96593628D02*
X125901313Y-96498390D01*
X125901313Y-96498390D02*
X125853694Y-96450771D01*
X125853694Y-96450771D02*
X125758456Y-96403152D01*
X125758456Y-96403152D02*
X125615599Y-96403152D01*
X125615599Y-96403152D02*
X125520361Y-96450771D01*
X125520361Y-96450771D02*
X125472742Y-96498390D01*
X125472742Y-96498390D02*
X125425123Y-96593628D01*
X125425123Y-96593628D02*
X125425123Y-96879342D01*
X125425123Y-96879342D02*
X125472742Y-96974580D01*
X125472742Y-96974580D02*
X125520361Y-97022200D01*
X125520361Y-97022200D02*
X125615599Y-97069819D01*
X125615599Y-97069819D02*
X125758456Y-97069819D01*
X124996551Y-97069819D02*
X124996551Y-96069819D01*
X124996551Y-96069819D02*
X124663218Y-96784104D01*
X124663218Y-96784104D02*
X124329885Y-96069819D01*
X124329885Y-96069819D02*
X124329885Y-97069819D01*
X123425123Y-97069819D02*
X123425123Y-96546009D01*
X123425123Y-96546009D02*
X123472742Y-96450771D01*
X123472742Y-96450771D02*
X123567980Y-96403152D01*
X123567980Y-96403152D02*
X123758456Y-96403152D01*
X123758456Y-96403152D02*
X123853694Y-96450771D01*
X123425123Y-97022200D02*
X123520361Y-97069819D01*
X123520361Y-97069819D02*
X123758456Y-97069819D01*
X123758456Y-97069819D02*
X123853694Y-97022200D01*
X123853694Y-97022200D02*
X123901313Y-96926961D01*
X123901313Y-96926961D02*
X123901313Y-96831723D01*
X123901313Y-96831723D02*
X123853694Y-96736485D01*
X123853694Y-96736485D02*
X123758456Y-96688866D01*
X123758456Y-96688866D02*
X123520361Y-96688866D01*
X123520361Y-96688866D02*
X123425123Y-96641247D01*
X122948932Y-96403152D02*
X122948932Y-97069819D01*
X122948932Y-96498390D02*
X122901313Y-96450771D01*
X122901313Y-96450771D02*
X122806075Y-96403152D01*
X122806075Y-96403152D02*
X122663218Y-96403152D01*
X122663218Y-96403152D02*
X122567980Y-96450771D01*
X122567980Y-96450771D02*
X122520361Y-96546009D01*
X122520361Y-96546009D02*
X122520361Y-97069819D01*
G36*
X117707024Y-98105453D02*
G01*
X117735895Y-98161517D01*
X117736200Y-98245339D01*
X117408856Y-98180850D01*
X117408652Y-98165284D01*
X117436950Y-98106966D01*
X117493117Y-98078042D01*
X117648286Y-98076952D01*
X117707024Y-98105453D01*
G37*
G36*
X118688857Y-98118898D02*
G01*
X118530499Y-98119475D01*
X118526750Y-98118645D01*
X118521864Y-98119507D01*
X118402200Y-98119943D01*
X118333434Y-98086576D01*
X118302106Y-98056331D01*
X118266648Y-97987474D01*
X118265663Y-97879842D01*
X118298844Y-97811460D01*
X118329088Y-97780133D01*
X118397776Y-97744762D01*
X118688324Y-97743704D01*
X118688857Y-98118898D01*
G37*
G36*
X118949331Y-98855930D02*
G01*
X102769027Y-98855930D01*
X102769027Y-98607569D01*
X102880138Y-98607569D01*
X102880138Y-98636832D01*
X102887741Y-98655187D01*
X102891337Y-98663868D01*
X102900664Y-98675233D01*
X102959648Y-98732179D01*
X102986684Y-98743378D01*
X102986685Y-98743378D01*
X103015947Y-98743378D01*
X103015948Y-98743378D01*
X103042984Y-98732179D01*
X103054349Y-98722852D01*
X103111295Y-98663868D01*
X103114891Y-98655187D01*
X114784899Y-98655187D01*
X114784899Y-98684451D01*
X114796098Y-98711487D01*
X114816790Y-98732179D01*
X114843826Y-98743378D01*
X114858458Y-98744819D01*
X115444518Y-98743378D01*
X115471554Y-98732179D01*
X115492246Y-98711487D01*
X115503445Y-98684451D01*
X115503445Y-98655187D01*
X115492246Y-98628151D01*
X115471554Y-98607459D01*
X115444518Y-98596260D01*
X115429886Y-98594819D01*
X115219066Y-98595337D01*
X115218074Y-97896800D01*
X115282144Y-97959646D01*
X115288664Y-97967164D01*
X115291857Y-97969174D01*
X115292980Y-97970275D01*
X115294812Y-97971033D01*
X115301107Y-97974996D01*
X115410076Y-98027870D01*
X115439266Y-98029944D01*
X115467028Y-98020690D01*
X115474611Y-98014113D01*
X116450930Y-98014113D01*
X116454494Y-98028377D01*
X116690300Y-98684500D01*
X116690479Y-98688086D01*
X116695080Y-98697800D01*
X116698868Y-98708339D01*
X116701394Y-98711129D01*
X116703006Y-98714532D01*
X116711141Y-98721897D01*
X116718507Y-98730033D01*
X116721909Y-98731644D01*
X116724700Y-98734171D01*
X116735037Y-98737862D01*
X116744953Y-98742560D01*
X116748711Y-98742746D01*
X116752259Y-98744014D01*
X116763220Y-98743468D01*
X116774181Y-98744014D01*
X116777728Y-98742746D01*
X116781487Y-98742560D01*
X116791402Y-98737862D01*
X116801740Y-98734171D01*
X116804530Y-98731644D01*
X116807933Y-98730033D01*
X116815301Y-98721893D01*
X116823434Y-98714531D01*
X116825044Y-98711130D01*
X116827572Y-98708339D01*
X116833851Y-98695044D01*
X117028701Y-98146009D01*
X117259649Y-98146009D01*
X117260820Y-98235312D01*
X117259649Y-98241169D01*
X117260985Y-98247925D01*
X117261090Y-98255879D01*
X117263901Y-98262667D01*
X117265328Y-98269876D01*
X117269447Y-98276055D01*
X117272289Y-98282915D01*
X117277484Y-98288110D01*
X117281560Y-98294224D01*
X117287730Y-98298356D01*
X117292981Y-98303607D01*
X117299769Y-98306418D01*
X117305875Y-98310508D01*
X117319940Y-98314791D01*
X117736752Y-98396905D01*
X117737154Y-98507028D01*
X117708538Y-98566004D01*
X117652370Y-98594928D01*
X117497201Y-98596018D01*
X117402077Y-98549863D01*
X117372887Y-98547789D01*
X117345126Y-98557043D01*
X117323018Y-98576216D01*
X117309931Y-98602391D01*
X117307857Y-98631581D01*
X117317111Y-98659342D01*
X117336284Y-98681450D01*
X117348727Y-98689282D01*
X117434616Y-98730957D01*
X117435838Y-98732179D01*
X117444697Y-98735848D01*
X117457696Y-98742156D01*
X117460385Y-98742347D01*
X117462874Y-98743378D01*
X117477506Y-98744819D01*
X117656593Y-98743560D01*
X117658601Y-98744230D01*
X117669273Y-98743471D01*
X117682614Y-98743378D01*
X117685103Y-98742346D01*
X117687791Y-98742156D01*
X117701523Y-98736901D01*
X117792907Y-98689841D01*
X117800362Y-98687357D01*
X117804204Y-98684024D01*
X117809204Y-98681450D01*
X117815365Y-98674345D01*
X117822470Y-98668184D01*
X117827131Y-98660778D01*
X117828377Y-98659342D01*
X117828761Y-98658188D01*
X117830302Y-98655741D01*
X117871976Y-98569851D01*
X117873199Y-98568629D01*
X117876870Y-98559764D01*
X117883176Y-98546770D01*
X117883366Y-98544082D01*
X117884398Y-98541593D01*
X117885839Y-98526961D01*
X117885157Y-98339968D01*
X117885839Y-98336563D01*
X117885132Y-98332991D01*
X117884493Y-98157657D01*
X117885250Y-98155389D01*
X117884444Y-98144047D01*
X117884398Y-98131377D01*
X117883367Y-98128888D01*
X117883176Y-98126199D01*
X117877921Y-98112468D01*
X117830861Y-98021083D01*
X117828377Y-98013629D01*
X117825044Y-98009786D01*
X117822470Y-98004787D01*
X117815365Y-97998625D01*
X117809204Y-97991521D01*
X117801798Y-97986859D01*
X117800362Y-97985614D01*
X117799208Y-97985229D01*
X117796761Y-97983689D01*
X117710872Y-97942014D01*
X117709650Y-97940792D01*
X117700784Y-97937119D01*
X117687791Y-97930815D01*
X117685103Y-97930624D01*
X117682614Y-97929593D01*
X117667982Y-97928152D01*
X117488893Y-97929410D01*
X117486886Y-97928741D01*
X117476213Y-97929499D01*
X117462874Y-97929593D01*
X117460385Y-97930623D01*
X117457696Y-97930815D01*
X117443965Y-97936070D01*
X117352580Y-97983129D01*
X117345126Y-97985614D01*
X117341283Y-97988946D01*
X117336284Y-97991521D01*
X117330122Y-97998625D01*
X117323018Y-98004787D01*
X117318356Y-98012192D01*
X117317111Y-98013629D01*
X117316726Y-98014782D01*
X117315186Y-98017230D01*
X117273511Y-98103118D01*
X117272289Y-98104341D01*
X117268616Y-98113206D01*
X117262312Y-98126200D01*
X117262121Y-98128887D01*
X117261090Y-98131377D01*
X117259649Y-98146009D01*
X117028701Y-98146009D01*
X117075510Y-98014113D01*
X117074056Y-97984886D01*
X117061529Y-97958440D01*
X117039835Y-97938800D01*
X117012276Y-97928957D01*
X116983048Y-97930411D01*
X116956602Y-97942938D01*
X116936963Y-97964632D01*
X116930684Y-97977927D01*
X116763528Y-98448925D01*
X116589477Y-97964632D01*
X116569838Y-97942938D01*
X116543392Y-97930411D01*
X116514164Y-97928957D01*
X116486605Y-97938800D01*
X116464911Y-97958439D01*
X116452384Y-97984885D01*
X116450930Y-98014113D01*
X115474611Y-98014113D01*
X115489135Y-98001517D01*
X115502223Y-97975342D01*
X115504297Y-97946152D01*
X115495043Y-97918391D01*
X115475870Y-97896283D01*
X115463427Y-97888451D01*
X115405400Y-97860295D01*
X118116792Y-97860295D01*
X118117996Y-97991924D01*
X118117381Y-97993771D01*
X118118106Y-98003985D01*
X118118233Y-98017784D01*
X118119264Y-98020273D01*
X118119455Y-98022961D01*
X118124710Y-98036693D01*
X118173402Y-98131249D01*
X118177051Y-98140058D01*
X118179433Y-98142960D01*
X118180161Y-98144374D01*
X118181659Y-98145673D01*
X118186378Y-98151423D01*
X118235413Y-98198764D01*
X118241046Y-98205259D01*
X118244191Y-98207238D01*
X118245362Y-98208369D01*
X118247189Y-98209126D01*
X118253489Y-98213091D01*
X118339378Y-98254766D01*
X118340600Y-98255988D01*
X118349459Y-98259657D01*
X118362458Y-98265965D01*
X118365147Y-98266156D01*
X118367636Y-98267187D01*
X118381549Y-98268557D01*
X118123139Y-98639623D01*
X118116810Y-98668194D01*
X118121895Y-98697011D01*
X118137622Y-98721690D01*
X118161596Y-98738472D01*
X118190167Y-98744801D01*
X118218984Y-98739716D01*
X118243663Y-98723989D01*
X118253234Y-98712829D01*
X118563034Y-98267969D01*
X118689068Y-98267510D01*
X118689661Y-98684451D01*
X118700860Y-98711487D01*
X118721552Y-98732179D01*
X118748588Y-98743378D01*
X118777852Y-98743378D01*
X118804888Y-98732179D01*
X118825580Y-98711487D01*
X118836779Y-98684451D01*
X118838220Y-98669819D01*
X118836779Y-97655187D01*
X118825580Y-97628151D01*
X118804888Y-97607459D01*
X118777852Y-97596260D01*
X118763220Y-97594819D01*
X118393916Y-97596164D01*
X118391648Y-97595408D01*
X118380306Y-97596213D01*
X118367636Y-97596260D01*
X118365147Y-97597290D01*
X118362458Y-97597482D01*
X118348727Y-97602737D01*
X118254172Y-97651428D01*
X118245362Y-97655078D01*
X118242459Y-97657460D01*
X118241046Y-97658188D01*
X118239746Y-97659686D01*
X118233997Y-97664405D01*
X118186655Y-97713440D01*
X118180161Y-97719073D01*
X118178181Y-97722218D01*
X118177051Y-97723389D01*
X118176293Y-97725216D01*
X118172329Y-97731516D01*
X118130654Y-97817404D01*
X118129432Y-97818627D01*
X118125759Y-97827492D01*
X118119455Y-97840486D01*
X118119264Y-97843173D01*
X118118233Y-97845663D01*
X118116792Y-97860295D01*
X115405400Y-97860295D01*
X115381258Y-97848581D01*
X115300967Y-97769825D01*
X115209053Y-97634238D01*
X115206532Y-97628151D01*
X115201549Y-97623168D01*
X115197260Y-97616841D01*
X115191090Y-97612709D01*
X115185840Y-97607459D01*
X115179050Y-97604646D01*
X115172945Y-97600558D01*
X115165664Y-97599101D01*
X115158804Y-97596260D01*
X115151456Y-97596260D01*
X115144251Y-97594819D01*
X115136967Y-97596260D01*
X115129540Y-97596260D01*
X115122751Y-97599072D01*
X115115543Y-97600498D01*
X115109364Y-97604617D01*
X115102504Y-97607459D01*
X115097308Y-97612654D01*
X115091194Y-97616731D01*
X115087062Y-97622900D01*
X115081812Y-97628151D01*
X115078999Y-97634940D01*
X115074911Y-97641046D01*
X115073454Y-97648326D01*
X115070613Y-97655187D01*
X115069187Y-97669663D01*
X115069172Y-97669740D01*
X115069177Y-97669766D01*
X115069172Y-97669819D01*
X115070486Y-98595702D01*
X114843826Y-98596260D01*
X114816790Y-98607459D01*
X114796098Y-98628151D01*
X114784899Y-98655187D01*
X103114891Y-98655187D01*
X103122494Y-98636832D01*
X103122494Y-98607569D01*
X103122448Y-98607459D01*
X103111296Y-98580533D01*
X103101968Y-98569167D01*
X103042984Y-98512220D01*
X103042983Y-98512219D01*
X103027146Y-98505659D01*
X103015948Y-98501021D01*
X103015947Y-98501021D01*
X102986684Y-98501021D01*
X102975486Y-98505659D01*
X102959649Y-98512219D01*
X102959648Y-98512220D01*
X102948282Y-98521548D01*
X102891336Y-98580533D01*
X102880138Y-98607569D01*
X102769027Y-98607569D01*
X102769027Y-97483708D01*
X118949331Y-97483708D01*
X118949331Y-98855930D01*
G37*
D11*
X132560652Y-95634438D02*
X132560652Y-93634438D01*
X132560652Y-93634438D02*
X131798747Y-93634438D01*
X131798747Y-93634438D02*
X131608271Y-93729676D01*
X131608271Y-93729676D02*
X131513033Y-93824914D01*
X131513033Y-93824914D02*
X131417795Y-94015390D01*
X131417795Y-94015390D02*
X131417795Y-94301104D01*
X131417795Y-94301104D02*
X131513033Y-94491580D01*
X131513033Y-94491580D02*
X131608271Y-94586819D01*
X131608271Y-94586819D02*
X131798747Y-94682057D01*
X131798747Y-94682057D02*
X132560652Y-94682057D01*
X129417795Y-95443961D02*
X129513033Y-95539200D01*
X129513033Y-95539200D02*
X129798747Y-95634438D01*
X129798747Y-95634438D02*
X129989223Y-95634438D01*
X129989223Y-95634438D02*
X130274938Y-95539200D01*
X130274938Y-95539200D02*
X130465414Y-95348723D01*
X130465414Y-95348723D02*
X130560652Y-95158247D01*
X130560652Y-95158247D02*
X130655890Y-94777295D01*
X130655890Y-94777295D02*
X130655890Y-94491580D01*
X130655890Y-94491580D02*
X130560652Y-94110628D01*
X130560652Y-94110628D02*
X130465414Y-93920152D01*
X130465414Y-93920152D02*
X130274938Y-93729676D01*
X130274938Y-93729676D02*
X129989223Y-93634438D01*
X129989223Y-93634438D02*
X129798747Y-93634438D01*
X129798747Y-93634438D02*
X129513033Y-93729676D01*
X129513033Y-93729676D02*
X129417795Y-93824914D01*
X128560652Y-95634438D02*
X128560652Y-93634438D01*
X126846366Y-95539200D02*
X127036842Y-95634438D01*
X127036842Y-95634438D02*
X127417795Y-95634438D01*
X127417795Y-95634438D02*
X127608271Y-95539200D01*
X127608271Y-95539200D02*
X127703509Y-95348723D01*
X127703509Y-95348723D02*
X127703509Y-94586819D01*
X127703509Y-94586819D02*
X127608271Y-94396342D01*
X127608271Y-94396342D02*
X127417795Y-94301104D01*
X127417795Y-94301104D02*
X127036842Y-94301104D01*
X127036842Y-94301104D02*
X126846366Y-94396342D01*
X126846366Y-94396342D02*
X126751128Y-94586819D01*
X126751128Y-94586819D02*
X126751128Y-94777295D01*
X126751128Y-94777295D02*
X127703509Y-94967771D01*
X123513032Y-95539200D02*
X123703508Y-95634438D01*
X123703508Y-95634438D02*
X124084461Y-95634438D01*
X124084461Y-95634438D02*
X124274937Y-95539200D01*
X124274937Y-95539200D02*
X124370175Y-95443961D01*
X124370175Y-95443961D02*
X124465413Y-95253485D01*
X124465413Y-95253485D02*
X124465413Y-94682057D01*
X124465413Y-94682057D02*
X124370175Y-94491580D01*
X124370175Y-94491580D02*
X124274937Y-94396342D01*
X124274937Y-94396342D02*
X124084461Y-94301104D01*
X124084461Y-94301104D02*
X123703508Y-94301104D01*
X123703508Y-94301104D02*
X123513032Y-94396342D01*
X122370175Y-95634438D02*
X122560651Y-95539200D01*
X122560651Y-95539200D02*
X122655889Y-95348723D01*
X122655889Y-95348723D02*
X122655889Y-93634438D01*
X121322556Y-95634438D02*
X121513032Y-95539200D01*
X121513032Y-95539200D02*
X121608270Y-95443961D01*
X121608270Y-95443961D02*
X121703508Y-95253485D01*
X121703508Y-95253485D02*
X121703508Y-94682057D01*
X121703508Y-94682057D02*
X121608270Y-94491580D01*
X121608270Y-94491580D02*
X121513032Y-94396342D01*
X121513032Y-94396342D02*
X121322556Y-94301104D01*
X121322556Y-94301104D02*
X121036841Y-94301104D01*
X121036841Y-94301104D02*
X120846365Y-94396342D01*
X120846365Y-94396342D02*
X120751127Y-94491580D01*
X120751127Y-94491580D02*
X120655889Y-94682057D01*
X120655889Y-94682057D02*
X120655889Y-95253485D01*
X120655889Y-95253485D02*
X120751127Y-95443961D01*
X120751127Y-95443961D02*
X120846365Y-95539200D01*
X120846365Y-95539200D02*
X121036841Y-95634438D01*
X121036841Y-95634438D02*
X121322556Y-95634438D01*
X118941603Y-95539200D02*
X119132079Y-95634438D01*
X119132079Y-95634438D02*
X119513032Y-95634438D01*
X119513032Y-95634438D02*
X119703508Y-95539200D01*
X119703508Y-95539200D02*
X119798746Y-95443961D01*
X119798746Y-95443961D02*
X119893984Y-95253485D01*
X119893984Y-95253485D02*
X119893984Y-94682057D01*
X119893984Y-94682057D02*
X119798746Y-94491580D01*
X119798746Y-94491580D02*
X119703508Y-94396342D01*
X119703508Y-94396342D02*
X119513032Y-94301104D01*
X119513032Y-94301104D02*
X119132079Y-94301104D01*
X119132079Y-94301104D02*
X118941603Y-94396342D01*
X118084460Y-95634438D02*
X118084460Y-93634438D01*
X117893984Y-94872533D02*
X117322555Y-95634438D01*
X117322555Y-94301104D02*
X118084460Y-95063009D01*
X114941602Y-95634438D02*
X114941602Y-94301104D01*
X114941602Y-93634438D02*
X115036840Y-93729676D01*
X115036840Y-93729676D02*
X114941602Y-93824914D01*
X114941602Y-93824914D02*
X114846364Y-93729676D01*
X114846364Y-93729676D02*
X114941602Y-93634438D01*
X114941602Y-93634438D02*
X114941602Y-93824914D01*
X113989221Y-94301104D02*
X113989221Y-95634438D01*
X113989221Y-94491580D02*
X113893983Y-94396342D01*
X113893983Y-94396342D02*
X113703507Y-94301104D01*
X113703507Y-94301104D02*
X113417792Y-94301104D01*
X113417792Y-94301104D02*
X113227316Y-94396342D01*
X113227316Y-94396342D02*
X113132078Y-94586819D01*
X113132078Y-94586819D02*
X113132078Y-95634438D01*
X112179697Y-94301104D02*
X112179697Y-96015390D01*
X112179697Y-96015390D02*
X112274935Y-96205866D01*
X112274935Y-96205866D02*
X112465411Y-96301104D01*
X112465411Y-96301104D02*
X112560649Y-96301104D01*
X112179697Y-93634438D02*
X112274935Y-93729676D01*
X112274935Y-93729676D02*
X112179697Y-93824914D01*
X112179697Y-93824914D02*
X112084459Y-93729676D01*
X112084459Y-93729676D02*
X112179697Y-93634438D01*
X112179697Y-93634438D02*
X112179697Y-93824914D01*
X110465411Y-95539200D02*
X110655887Y-95634438D01*
X110655887Y-95634438D02*
X111036840Y-95634438D01*
X111036840Y-95634438D02*
X111227316Y-95539200D01*
X111227316Y-95539200D02*
X111322554Y-95348723D01*
X111322554Y-95348723D02*
X111322554Y-94586819D01*
X111322554Y-94586819D02*
X111227316Y-94396342D01*
X111227316Y-94396342D02*
X111036840Y-94301104D01*
X111036840Y-94301104D02*
X110655887Y-94301104D01*
X110655887Y-94301104D02*
X110465411Y-94396342D01*
X110465411Y-94396342D02*
X110370173Y-94586819D01*
X110370173Y-94586819D02*
X110370173Y-94777295D01*
X110370173Y-94777295D02*
X111322554Y-94967771D01*
X108655887Y-95539200D02*
X108846363Y-95634438D01*
X108846363Y-95634438D02*
X109227316Y-95634438D01*
X109227316Y-95634438D02*
X109417792Y-95539200D01*
X109417792Y-95539200D02*
X109513030Y-95443961D01*
X109513030Y-95443961D02*
X109608268Y-95253485D01*
X109608268Y-95253485D02*
X109608268Y-94682057D01*
X109608268Y-94682057D02*
X109513030Y-94491580D01*
X109513030Y-94491580D02*
X109417792Y-94396342D01*
X109417792Y-94396342D02*
X109227316Y-94301104D01*
X109227316Y-94301104D02*
X108846363Y-94301104D01*
X108846363Y-94301104D02*
X108655887Y-94396342D01*
X108084458Y-94301104D02*
X107322554Y-94301104D01*
X107798744Y-93634438D02*
X107798744Y-95348723D01*
X107798744Y-95348723D02*
X107703506Y-95539200D01*
X107703506Y-95539200D02*
X107513030Y-95634438D01*
X107513030Y-95634438D02*
X107322554Y-95634438D01*
X106370173Y-95634438D02*
X106560649Y-95539200D01*
X106560649Y-95539200D02*
X106655887Y-95443961D01*
X106655887Y-95443961D02*
X106751125Y-95253485D01*
X106751125Y-95253485D02*
X106751125Y-94682057D01*
X106751125Y-94682057D02*
X106655887Y-94491580D01*
X106655887Y-94491580D02*
X106560649Y-94396342D01*
X106560649Y-94396342D02*
X106370173Y-94301104D01*
X106370173Y-94301104D02*
X106084458Y-94301104D01*
X106084458Y-94301104D02*
X105893982Y-94396342D01*
X105893982Y-94396342D02*
X105798744Y-94491580D01*
X105798744Y-94491580D02*
X105703506Y-94682057D01*
X105703506Y-94682057D02*
X105703506Y-95253485D01*
X105703506Y-95253485D02*
X105798744Y-95443961D01*
X105798744Y-95443961D02*
X105893982Y-95539200D01*
X105893982Y-95539200D02*
X106084458Y-95634438D01*
X106084458Y-95634438D02*
X106370173Y-95634438D01*
X104846363Y-95634438D02*
X104846363Y-94301104D01*
X104846363Y-94682057D02*
X104751125Y-94491580D01*
X104751125Y-94491580D02*
X104655887Y-94396342D01*
X104655887Y-94396342D02*
X104465411Y-94301104D01*
X104465411Y-94301104D02*
X104274934Y-94301104D01*
D12*
X129411529Y-80806220D02*
X129487719Y-80768125D01*
X129487719Y-80768125D02*
X129602005Y-80768125D01*
X129602005Y-80768125D02*
X129716291Y-80806220D01*
X129716291Y-80806220D02*
X129792481Y-80882410D01*
X129792481Y-80882410D02*
X129830576Y-80958601D01*
X129830576Y-80958601D02*
X129868672Y-81110982D01*
X129868672Y-81110982D02*
X129868672Y-81225268D01*
X129868672Y-81225268D02*
X129830576Y-81377649D01*
X129830576Y-81377649D02*
X129792481Y-81453839D01*
X129792481Y-81453839D02*
X129716291Y-81530030D01*
X129716291Y-81530030D02*
X129602005Y-81568125D01*
X129602005Y-81568125D02*
X129525814Y-81568125D01*
X129525814Y-81568125D02*
X129411529Y-81530030D01*
X129411529Y-81530030D02*
X129373433Y-81491934D01*
X129373433Y-81491934D02*
X129373433Y-81225268D01*
X129373433Y-81225268D02*
X129525814Y-81225268D01*
X129030576Y-81568125D02*
X129030576Y-80768125D01*
X129030576Y-80768125D02*
X128573433Y-81568125D01*
X128573433Y-81568125D02*
X128573433Y-80768125D01*
X128192481Y-81568125D02*
X128192481Y-80768125D01*
X128192481Y-80768125D02*
X128002005Y-80768125D01*
X128002005Y-80768125D02*
X127887719Y-80806220D01*
X127887719Y-80806220D02*
X127811529Y-80882410D01*
X127811529Y-80882410D02*
X127773434Y-80958601D01*
X127773434Y-80958601D02*
X127735338Y-81110982D01*
X127735338Y-81110982D02*
X127735338Y-81225268D01*
X127735338Y-81225268D02*
X127773434Y-81377649D01*
X127773434Y-81377649D02*
X127811529Y-81453839D01*
X127811529Y-81453839D02*
X127887719Y-81530030D01*
X127887719Y-81530030D02*
X128002005Y-81568125D01*
X128002005Y-81568125D02*
X128192481Y-81568125D01*
X129411529Y-82094175D02*
X129487719Y-82056080D01*
X129487719Y-82056080D02*
X129602005Y-82056080D01*
X129602005Y-82056080D02*
X129716291Y-82094175D01*
X129716291Y-82094175D02*
X129792481Y-82170365D01*
X129792481Y-82170365D02*
X129830576Y-82246556D01*
X129830576Y-82246556D02*
X129868672Y-82398937D01*
X129868672Y-82398937D02*
X129868672Y-82513223D01*
X129868672Y-82513223D02*
X129830576Y-82665604D01*
X129830576Y-82665604D02*
X129792481Y-82741794D01*
X129792481Y-82741794D02*
X129716291Y-82817985D01*
X129716291Y-82817985D02*
X129602005Y-82856080D01*
X129602005Y-82856080D02*
X129525814Y-82856080D01*
X129525814Y-82856080D02*
X129411529Y-82817985D01*
X129411529Y-82817985D02*
X129373433Y-82779889D01*
X129373433Y-82779889D02*
X129373433Y-82513223D01*
X129373433Y-82513223D02*
X129525814Y-82513223D01*
X129030576Y-82856080D02*
X129030576Y-82056080D01*
X129030576Y-82056080D02*
X128573433Y-82856080D01*
X128573433Y-82856080D02*
X128573433Y-82056080D01*
X128192481Y-82856080D02*
X128192481Y-82056080D01*
X128192481Y-82056080D02*
X128002005Y-82056080D01*
X128002005Y-82056080D02*
X127887719Y-82094175D01*
X127887719Y-82094175D02*
X127811529Y-82170365D01*
X127811529Y-82170365D02*
X127773434Y-82246556D01*
X127773434Y-82246556D02*
X127735338Y-82398937D01*
X127735338Y-82398937D02*
X127735338Y-82513223D01*
X127735338Y-82513223D02*
X127773434Y-82665604D01*
X127773434Y-82665604D02*
X127811529Y-82741794D01*
X127811529Y-82741794D02*
X127887719Y-82817985D01*
X127887719Y-82817985D02*
X128002005Y-82856080D01*
X128002005Y-82856080D02*
X128192481Y-82856080D01*
X129944862Y-83344035D02*
X129487719Y-83344035D01*
X129716291Y-84144035D02*
X129716291Y-83344035D01*
X129297243Y-84144035D02*
X128878195Y-83610701D01*
X129297243Y-83610701D02*
X128878195Y-84144035D01*
X128573433Y-83839273D02*
X127963910Y-83839273D01*
X128268671Y-84144035D02*
X128268671Y-83534511D01*
X129944862Y-84631990D02*
X129487719Y-84631990D01*
X129716291Y-85431990D02*
X129716291Y-84631990D01*
X129297243Y-85431990D02*
X128878195Y-84898656D01*
X129297243Y-84898656D02*
X128878195Y-85431990D01*
X128573433Y-85127228D02*
X127963910Y-85127228D01*
X129373433Y-86719945D02*
X129640100Y-86338992D01*
X129830576Y-86719945D02*
X129830576Y-85919945D01*
X129830576Y-85919945D02*
X129525814Y-85919945D01*
X129525814Y-85919945D02*
X129449624Y-85958040D01*
X129449624Y-85958040D02*
X129411529Y-85996135D01*
X129411529Y-85996135D02*
X129373433Y-86072326D01*
X129373433Y-86072326D02*
X129373433Y-86186611D01*
X129373433Y-86186611D02*
X129411529Y-86262802D01*
X129411529Y-86262802D02*
X129449624Y-86300897D01*
X129449624Y-86300897D02*
X129525814Y-86338992D01*
X129525814Y-86338992D02*
X129830576Y-86338992D01*
X129106767Y-86719945D02*
X128687719Y-86186611D01*
X129106767Y-86186611D02*
X128687719Y-86719945D01*
X128382957Y-86415183D02*
X127773434Y-86415183D01*
X128078195Y-86719945D02*
X128078195Y-86110421D01*
X129373433Y-88007900D02*
X129640100Y-87626947D01*
X129830576Y-88007900D02*
X129830576Y-87207900D01*
X129830576Y-87207900D02*
X129525814Y-87207900D01*
X129525814Y-87207900D02*
X129449624Y-87245995D01*
X129449624Y-87245995D02*
X129411529Y-87284090D01*
X129411529Y-87284090D02*
X129373433Y-87360281D01*
X129373433Y-87360281D02*
X129373433Y-87474566D01*
X129373433Y-87474566D02*
X129411529Y-87550757D01*
X129411529Y-87550757D02*
X129449624Y-87588852D01*
X129449624Y-87588852D02*
X129525814Y-87626947D01*
X129525814Y-87626947D02*
X129830576Y-87626947D01*
X129106767Y-88007900D02*
X128687719Y-87474566D01*
X129106767Y-87474566D02*
X128687719Y-88007900D01*
X128382957Y-87703138D02*
X127773434Y-87703138D01*
X129906767Y-88495855D02*
X129411529Y-88495855D01*
X129411529Y-88495855D02*
X129678195Y-88800617D01*
X129678195Y-88800617D02*
X129563910Y-88800617D01*
X129563910Y-88800617D02*
X129487719Y-88838712D01*
X129487719Y-88838712D02*
X129449624Y-88876807D01*
X129449624Y-88876807D02*
X129411529Y-88952998D01*
X129411529Y-88952998D02*
X129411529Y-89143474D01*
X129411529Y-89143474D02*
X129449624Y-89219664D01*
X129449624Y-89219664D02*
X129487719Y-89257760D01*
X129487719Y-89257760D02*
X129563910Y-89295855D01*
X129563910Y-89295855D02*
X129792481Y-89295855D01*
X129792481Y-89295855D02*
X129868672Y-89257760D01*
X129868672Y-89257760D02*
X129906767Y-89219664D01*
X129182957Y-88495855D02*
X128916290Y-89295855D01*
X128916290Y-89295855D02*
X128649624Y-88495855D01*
X128459148Y-88495855D02*
X127963910Y-88495855D01*
X127963910Y-88495855D02*
X128230576Y-88800617D01*
X128230576Y-88800617D02*
X128116291Y-88800617D01*
X128116291Y-88800617D02*
X128040100Y-88838712D01*
X128040100Y-88838712D02*
X128002005Y-88876807D01*
X128002005Y-88876807D02*
X127963910Y-88952998D01*
X127963910Y-88952998D02*
X127963910Y-89143474D01*
X127963910Y-89143474D02*
X128002005Y-89219664D01*
X128002005Y-89219664D02*
X128040100Y-89257760D01*
X128040100Y-89257760D02*
X128116291Y-89295855D01*
X128116291Y-89295855D02*
X128344862Y-89295855D01*
X128344862Y-89295855D02*
X128421053Y-89257760D01*
X128421053Y-89257760D02*
X128459148Y-89219664D01*
D10*
X103261904Y-74204819D02*
X103261904Y-73204819D01*
X103261904Y-73681009D02*
X102690476Y-73681009D01*
X102690476Y-74204819D02*
X102690476Y-73204819D01*
X101690476Y-74204819D02*
X102261904Y-74204819D01*
X101976190Y-74204819D02*
X101976190Y-73204819D01*
X101976190Y-73204819D02*
X102071428Y-73347676D01*
X102071428Y-73347676D02*
X102166666Y-73442914D01*
X102166666Y-73442914D02*
X102261904Y-73490533D01*
X101433333Y-84254819D02*
X101433333Y-84969104D01*
X101433333Y-84969104D02*
X101480952Y-85111961D01*
X101480952Y-85111961D02*
X101576190Y-85207200D01*
X101576190Y-85207200D02*
X101719047Y-85254819D01*
X101719047Y-85254819D02*
X101814285Y-85254819D01*
X101004761Y-84350057D02*
X100957142Y-84302438D01*
X100957142Y-84302438D02*
X100861904Y-84254819D01*
X100861904Y-84254819D02*
X100623809Y-84254819D01*
X100623809Y-84254819D02*
X100528571Y-84302438D01*
X100528571Y-84302438D02*
X100480952Y-84350057D01*
X100480952Y-84350057D02*
X100433333Y-84445295D01*
X100433333Y-84445295D02*
X100433333Y-84540533D01*
X100433333Y-84540533D02*
X100480952Y-84683390D01*
X100480952Y-84683390D02*
X101052380Y-85254819D01*
X101052380Y-85254819D02*
X100433333Y-85254819D01*
X134933333Y-89654819D02*
X134933333Y-90369104D01*
X134933333Y-90369104D02*
X134980952Y-90511961D01*
X134980952Y-90511961D02*
X135076190Y-90607200D01*
X135076190Y-90607200D02*
X135219047Y-90654819D01*
X135219047Y-90654819D02*
X135314285Y-90654819D01*
X133933333Y-90654819D02*
X134504761Y-90654819D01*
X134219047Y-90654819D02*
X134219047Y-89654819D01*
X134219047Y-89654819D02*
X134314285Y-89797676D01*
X134314285Y-89797676D02*
X134409523Y-89892914D01*
X134409523Y-89892914D02*
X134504761Y-89940533D01*
D12*
%TO.C,TP1*%
X132450000Y-77200000D02*
G75*
G02*
X129550000Y-77200000I-1450000J0D01*
G01*
X129550000Y-77200000D02*
G75*
G02*
X132450000Y-77200000I1450000J0D01*
G01*
D13*
%TO.C,REF\u002A\u002A*%
X123754562Y-88132850D02*
X123837313Y-88160053D01*
X123912406Y-88205484D01*
X123984298Y-88271302D01*
X124022846Y-88315567D01*
X124062256Y-88373961D01*
X124087446Y-88434586D01*
X124100861Y-88503865D01*
X124104948Y-88588222D01*
X124104669Y-88634307D01*
X124102460Y-88675450D01*
X124096894Y-88707582D01*
X124086586Y-88738122D01*
X124070148Y-88774489D01*
X124056200Y-88801728D01*
X123997665Y-88887429D01*
X123925619Y-88956617D01*
X123841947Y-89007741D01*
X123748531Y-89039250D01*
X123715434Y-89046225D01*
X123674960Y-89053094D01*
X123641999Y-89054919D01*
X123607698Y-89051947D01*
X123563200Y-89044426D01*
X123511934Y-89032002D01*
X123421434Y-88994112D01*
X123342345Y-88939836D01*
X123276528Y-88871770D01*
X123225840Y-88792511D01*
X123192140Y-88704654D01*
X123177286Y-88610795D01*
X123183136Y-88513530D01*
X123209399Y-88417220D01*
X123254418Y-88328494D01*
X123315373Y-88253419D01*
X123390184Y-88193641D01*
X123476768Y-88150809D01*
X123573043Y-88126571D01*
X123676928Y-88122576D01*
X123754562Y-88132850D01*
G36*
X123754562Y-88132850D02*
G01*
X123837313Y-88160053D01*
X123912406Y-88205484D01*
X123984298Y-88271302D01*
X124022846Y-88315567D01*
X124062256Y-88373961D01*
X124087446Y-88434586D01*
X124100861Y-88503865D01*
X124104948Y-88588222D01*
X124104669Y-88634307D01*
X124102460Y-88675450D01*
X124096894Y-88707582D01*
X124086586Y-88738122D01*
X124070148Y-88774489D01*
X124056200Y-88801728D01*
X123997665Y-88887429D01*
X123925619Y-88956617D01*
X123841947Y-89007741D01*
X123748531Y-89039250D01*
X123715434Y-89046225D01*
X123674960Y-89053094D01*
X123641999Y-89054919D01*
X123607698Y-89051947D01*
X123563200Y-89044426D01*
X123511934Y-89032002D01*
X123421434Y-88994112D01*
X123342345Y-88939836D01*
X123276528Y-88871770D01*
X123225840Y-88792511D01*
X123192140Y-88704654D01*
X123177286Y-88610795D01*
X123183136Y-88513530D01*
X123209399Y-88417220D01*
X123254418Y-88328494D01*
X123315373Y-88253419D01*
X123390184Y-88193641D01*
X123476768Y-88150809D01*
X123573043Y-88126571D01*
X123676928Y-88122576D01*
X123754562Y-88132850D01*
G37*
X121288711Y-89062033D02*
X121384268Y-89079523D01*
X121548558Y-89124564D01*
X121702589Y-89187656D01*
X121848509Y-89269915D01*
X121988466Y-89372457D01*
X122124608Y-89496399D01*
X122168473Y-89541661D01*
X122280758Y-89673865D01*
X122373972Y-89811832D01*
X122450719Y-89959750D01*
X122513603Y-90121803D01*
X122517420Y-90133391D01*
X122567507Y-90319392D01*
X122600899Y-90515521D01*
X122617584Y-90717568D01*
X122617551Y-90921325D01*
X122600791Y-91122581D01*
X122567292Y-91317128D01*
X122517044Y-91500756D01*
X122473190Y-91618053D01*
X122395348Y-91780951D01*
X122301828Y-91934866D01*
X122194822Y-92076671D01*
X122076519Y-92203239D01*
X121949111Y-92311441D01*
X121871606Y-92364120D01*
X121744725Y-92433750D01*
X121607243Y-92492468D01*
X121465716Y-92537587D01*
X121326702Y-92566422D01*
X121312597Y-92568106D01*
X121269153Y-92571434D01*
X121211723Y-92574275D01*
X121146122Y-92576373D01*
X121078167Y-92577468D01*
X120951378Y-92575140D01*
X120803673Y-92562136D01*
X120665779Y-92537133D01*
X120532014Y-92499318D01*
X120508562Y-92490889D01*
X120460612Y-92471408D01*
X120404140Y-92446473D01*
X120342379Y-92417722D01*
X120278563Y-92386790D01*
X120215926Y-92355315D01*
X120157703Y-92324934D01*
X120107127Y-92297283D01*
X120067433Y-92273999D01*
X120041854Y-92256718D01*
X120033625Y-92247079D01*
X120035076Y-92243984D01*
X120046250Y-92224079D01*
X120067134Y-92188420D01*
X120096265Y-92139459D01*
X120132181Y-92079646D01*
X120173420Y-92011433D01*
X120218517Y-91937271D01*
X120399785Y-91640008D01*
X120446315Y-91684539D01*
X120537723Y-91762865D01*
X120651334Y-91837439D01*
X120769122Y-91891474D01*
X120889559Y-91924290D01*
X121011117Y-91935211D01*
X121052585Y-91933868D01*
X121170080Y-91915612D01*
X121280089Y-91876617D01*
X121381430Y-91817670D01*
X121472921Y-91739557D01*
X121553380Y-91643064D01*
X121621627Y-91528978D01*
X121637908Y-91494724D01*
X121683982Y-91371240D01*
X121719106Y-91232918D01*
X121743197Y-91083561D01*
X121756173Y-90926973D01*
X121757949Y-90766956D01*
X121748443Y-90607314D01*
X121727572Y-90451850D01*
X121695252Y-90304366D01*
X121651399Y-90168667D01*
X121613982Y-90082076D01*
X121549185Y-89968688D01*
X121473772Y-89875070D01*
X121387418Y-89800959D01*
X121289795Y-89746094D01*
X121180577Y-89710212D01*
X121059439Y-89693051D01*
X120990038Y-89691880D01*
X120867168Y-89706141D01*
X120751664Y-89741241D01*
X120644953Y-89796682D01*
X120548464Y-89871964D01*
X120532720Y-89886440D01*
X120502150Y-89912962D01*
X120479809Y-89930138D01*
X120469691Y-89934787D01*
X120467706Y-89932597D01*
X120453241Y-89913721D01*
X120429400Y-89880397D01*
X120398029Y-89835380D01*
X120360974Y-89781425D01*
X120320083Y-89721285D01*
X120277202Y-89657718D01*
X120234178Y-89593476D01*
X120192857Y-89531315D01*
X120155086Y-89473991D01*
X120122712Y-89424257D01*
X120097582Y-89384868D01*
X120081542Y-89358580D01*
X120076439Y-89348147D01*
X120081050Y-89343941D01*
X120100267Y-89338933D01*
X120109838Y-89336386D01*
X120137809Y-89325249D01*
X120179448Y-89306802D01*
X120230995Y-89282725D01*
X120288690Y-89254699D01*
X120299957Y-89249154D01*
X120477687Y-89169889D01*
X120647490Y-89110385D01*
X120811430Y-89070245D01*
X120971571Y-89049071D01*
X121129977Y-89046466D01*
X121288711Y-89062033D01*
G36*
X121288711Y-89062033D02*
G01*
X121384268Y-89079523D01*
X121548558Y-89124564D01*
X121702589Y-89187656D01*
X121848509Y-89269915D01*
X121988466Y-89372457D01*
X122124608Y-89496399D01*
X122168473Y-89541661D01*
X122280758Y-89673865D01*
X122373972Y-89811832D01*
X122450719Y-89959750D01*
X122513603Y-90121803D01*
X122517420Y-90133391D01*
X122567507Y-90319392D01*
X122600899Y-90515521D01*
X122617584Y-90717568D01*
X122617551Y-90921325D01*
X122600791Y-91122581D01*
X122567292Y-91317128D01*
X122517044Y-91500756D01*
X122473190Y-91618053D01*
X122395348Y-91780951D01*
X122301828Y-91934866D01*
X122194822Y-92076671D01*
X122076519Y-92203239D01*
X121949111Y-92311441D01*
X121871606Y-92364120D01*
X121744725Y-92433750D01*
X121607243Y-92492468D01*
X121465716Y-92537587D01*
X121326702Y-92566422D01*
X121312597Y-92568106D01*
X121269153Y-92571434D01*
X121211723Y-92574275D01*
X121146122Y-92576373D01*
X121078167Y-92577468D01*
X120951378Y-92575140D01*
X120803673Y-92562136D01*
X120665779Y-92537133D01*
X120532014Y-92499318D01*
X120508562Y-92490889D01*
X120460612Y-92471408D01*
X120404140Y-92446473D01*
X120342379Y-92417722D01*
X120278563Y-92386790D01*
X120215926Y-92355315D01*
X120157703Y-92324934D01*
X120107127Y-92297283D01*
X120067433Y-92273999D01*
X120041854Y-92256718D01*
X120033625Y-92247079D01*
X120035076Y-92243984D01*
X120046250Y-92224079D01*
X120067134Y-92188420D01*
X120096265Y-92139459D01*
X120132181Y-92079646D01*
X120173420Y-92011433D01*
X120218517Y-91937271D01*
X120399785Y-91640008D01*
X120446315Y-91684539D01*
X120537723Y-91762865D01*
X120651334Y-91837439D01*
X120769122Y-91891474D01*
X120889559Y-91924290D01*
X121011117Y-91935211D01*
X121052585Y-91933868D01*
X121170080Y-91915612D01*
X121280089Y-91876617D01*
X121381430Y-91817670D01*
X121472921Y-91739557D01*
X121553380Y-91643064D01*
X121621627Y-91528978D01*
X121637908Y-91494724D01*
X121683982Y-91371240D01*
X121719106Y-91232918D01*
X121743197Y-91083561D01*
X121756173Y-90926973D01*
X121757949Y-90766956D01*
X121748443Y-90607314D01*
X121727572Y-90451850D01*
X121695252Y-90304366D01*
X121651399Y-90168667D01*
X121613982Y-90082076D01*
X121549185Y-89968688D01*
X121473772Y-89875070D01*
X121387418Y-89800959D01*
X121289795Y-89746094D01*
X121180577Y-89710212D01*
X121059439Y-89693051D01*
X120990038Y-89691880D01*
X120867168Y-89706141D01*
X120751664Y-89741241D01*
X120644953Y-89796682D01*
X120548464Y-89871964D01*
X120532720Y-89886440D01*
X120502150Y-89912962D01*
X120479809Y-89930138D01*
X120469691Y-89934787D01*
X120467706Y-89932597D01*
X120453241Y-89913721D01*
X120429400Y-89880397D01*
X120398029Y-89835380D01*
X120360974Y-89781425D01*
X120320083Y-89721285D01*
X120277202Y-89657718D01*
X120234178Y-89593476D01*
X120192857Y-89531315D01*
X120155086Y-89473991D01*
X120122712Y-89424257D01*
X120097582Y-89384868D01*
X120081542Y-89358580D01*
X120076439Y-89348147D01*
X120081050Y-89343941D01*
X120100267Y-89338933D01*
X120109838Y-89336386D01*
X120137809Y-89325249D01*
X120179448Y-89306802D01*
X120230995Y-89282725D01*
X120288690Y-89254699D01*
X120299957Y-89249154D01*
X120477687Y-89169889D01*
X120647490Y-89110385D01*
X120811430Y-89070245D01*
X120971571Y-89049071D01*
X121129977Y-89046466D01*
X121288711Y-89062033D01*
G37*
X117485994Y-91342711D02*
X117485268Y-91420158D01*
X117476689Y-91571594D01*
X117457833Y-91708283D01*
X117427837Y-91834276D01*
X117385836Y-91953625D01*
X117330969Y-92070381D01*
X117264167Y-92181179D01*
X117173363Y-92294739D01*
X117069708Y-92390211D01*
X116953887Y-92467073D01*
X116826586Y-92524797D01*
X116688489Y-92562858D01*
X116650793Y-92568666D01*
X116571752Y-92574396D01*
X116483629Y-92574583D01*
X116394236Y-92569539D01*
X116311384Y-92559578D01*
X116242887Y-92545012D01*
X116212035Y-92535364D01*
X116134730Y-92505123D01*
X116057679Y-92467617D01*
X115988200Y-92426614D01*
X115933615Y-92385879D01*
X115910916Y-92366505D01*
X115888201Y-92348662D01*
X115876779Y-92341778D01*
X115875537Y-92343424D01*
X115872728Y-92361205D01*
X115870776Y-92394370D01*
X115870045Y-92437733D01*
X115870045Y-92533689D01*
X115011896Y-92533689D01*
X115046161Y-92472974D01*
X115051355Y-92463868D01*
X115059715Y-92449249D01*
X115067288Y-92435173D01*
X115074112Y-92420540D01*
X115080227Y-92404249D01*
X115085673Y-92385198D01*
X115090487Y-92362286D01*
X115094708Y-92334413D01*
X115098377Y-92300478D01*
X115101531Y-92259379D01*
X115104211Y-92210015D01*
X115106454Y-92151286D01*
X115108299Y-92082090D01*
X115109787Y-92001326D01*
X115110955Y-91907894D01*
X115111844Y-91800692D01*
X115112491Y-91678620D01*
X115112936Y-91540576D01*
X115113218Y-91385459D01*
X115113375Y-91212168D01*
X115113448Y-91019603D01*
X115113474Y-90806662D01*
X115113485Y-90670530D01*
X115915200Y-90670530D01*
X115915200Y-91820721D01*
X115985756Y-91867089D01*
X116026417Y-91890791D01*
X116080546Y-91916639D01*
X116129689Y-91934829D01*
X116193165Y-91950551D01*
X116289331Y-91961541D01*
X116373900Y-91953365D01*
X116447219Y-91925805D01*
X116509637Y-91878642D01*
X116561502Y-91811658D01*
X116603160Y-91724633D01*
X116634962Y-91617350D01*
X116637545Y-91605009D01*
X116646000Y-91543772D01*
X116651663Y-91466692D01*
X116654576Y-91379002D01*
X116654783Y-91285934D01*
X116652330Y-91192720D01*
X116647261Y-91104594D01*
X116639619Y-91026788D01*
X116629448Y-90964533D01*
X116628167Y-90958666D01*
X116599126Y-90848121D01*
X116564610Y-90757575D01*
X116523456Y-90684953D01*
X116474499Y-90628181D01*
X116416574Y-90585184D01*
X116384620Y-90569615D01*
X116311784Y-90550722D01*
X116230443Y-90547465D01*
X116145319Y-90559389D01*
X116061133Y-90586040D01*
X115982608Y-90626962D01*
X115915200Y-90670530D01*
X115113485Y-90670530D01*
X115113493Y-90572245D01*
X115113689Y-88887378D01*
X116019017Y-88887378D01*
X115994585Y-88924067D01*
X115988318Y-88933647D01*
X115962208Y-88979981D01*
X115944469Y-89027102D01*
X115932908Y-89082251D01*
X115925331Y-89152667D01*
X115924839Y-89159650D01*
X115923062Y-89197641D01*
X115921444Y-89251576D01*
X115919999Y-89318703D01*
X115918740Y-89396271D01*
X115917680Y-89481528D01*
X115916829Y-89571724D01*
X115916203Y-89664107D01*
X115915812Y-89755925D01*
X115915670Y-89844427D01*
X115915790Y-89926862D01*
X115916183Y-90000479D01*
X115916862Y-90062526D01*
X115917841Y-90110251D01*
X115919132Y-90140904D01*
X115920747Y-90151733D01*
X115928957Y-90147333D01*
X115950647Y-90132362D01*
X115980014Y-90110448D01*
X116028879Y-90076236D01*
X116117125Y-90029714D01*
X116215916Y-89996046D01*
X116328510Y-89974231D01*
X116458164Y-89963265D01*
X116550670Y-89962219D01*
X116672011Y-89972014D01*
X116782099Y-89996174D01*
X116885389Y-90035785D01*
X116986338Y-90091932D01*
X117031503Y-90122883D01*
X117136911Y-90214115D01*
X117228538Y-90323106D01*
X117306332Y-90449726D01*
X117370241Y-90593845D01*
X117420214Y-90755332D01*
X117456198Y-90934059D01*
X117478143Y-91129895D01*
X117483900Y-91285934D01*
X117485994Y-91342711D01*
G36*
X117485994Y-91342711D02*
G01*
X117485268Y-91420158D01*
X117476689Y-91571594D01*
X117457833Y-91708283D01*
X117427837Y-91834276D01*
X117385836Y-91953625D01*
X117330969Y-92070381D01*
X117264167Y-92181179D01*
X117173363Y-92294739D01*
X117069708Y-92390211D01*
X116953887Y-92467073D01*
X116826586Y-92524797D01*
X116688489Y-92562858D01*
X116650793Y-92568666D01*
X116571752Y-92574396D01*
X116483629Y-92574583D01*
X116394236Y-92569539D01*
X116311384Y-92559578D01*
X116242887Y-92545012D01*
X116212035Y-92535364D01*
X116134730Y-92505123D01*
X116057679Y-92467617D01*
X115988200Y-92426614D01*
X115933615Y-92385879D01*
X115910916Y-92366505D01*
X115888201Y-92348662D01*
X115876779Y-92341778D01*
X115875537Y-92343424D01*
X115872728Y-92361205D01*
X115870776Y-92394370D01*
X115870045Y-92437733D01*
X115870045Y-92533689D01*
X115011896Y-92533689D01*
X115046161Y-92472974D01*
X115051355Y-92463868D01*
X115059715Y-92449249D01*
X115067288Y-92435173D01*
X115074112Y-92420540D01*
X115080227Y-92404249D01*
X115085673Y-92385198D01*
X115090487Y-92362286D01*
X115094708Y-92334413D01*
X115098377Y-92300478D01*
X115101531Y-92259379D01*
X115104211Y-92210015D01*
X115106454Y-92151286D01*
X115108299Y-92082090D01*
X115109787Y-92001326D01*
X115110955Y-91907894D01*
X115111844Y-91800692D01*
X115112491Y-91678620D01*
X115112936Y-91540576D01*
X115113218Y-91385459D01*
X115113375Y-91212168D01*
X115113448Y-91019603D01*
X115113474Y-90806662D01*
X115113485Y-90670530D01*
X115915200Y-90670530D01*
X115915200Y-91820721D01*
X115985756Y-91867089D01*
X116026417Y-91890791D01*
X116080546Y-91916639D01*
X116129689Y-91934829D01*
X116193165Y-91950551D01*
X116289331Y-91961541D01*
X116373900Y-91953365D01*
X116447219Y-91925805D01*
X116509637Y-91878642D01*
X116561502Y-91811658D01*
X116603160Y-91724633D01*
X116634962Y-91617350D01*
X116637545Y-91605009D01*
X116646000Y-91543772D01*
X116651663Y-91466692D01*
X116654576Y-91379002D01*
X116654783Y-91285934D01*
X116652330Y-91192720D01*
X116647261Y-91104594D01*
X116639619Y-91026788D01*
X116629448Y-90964533D01*
X116628167Y-90958666D01*
X116599126Y-90848121D01*
X116564610Y-90757575D01*
X116523456Y-90684953D01*
X116474499Y-90628181D01*
X116416574Y-90585184D01*
X116384620Y-90569615D01*
X116311784Y-90550722D01*
X116230443Y-90547465D01*
X116145319Y-90559389D01*
X116061133Y-90586040D01*
X115982608Y-90626962D01*
X115915200Y-90670530D01*
X115113485Y-90670530D01*
X115113493Y-90572245D01*
X115113689Y-88887378D01*
X116019017Y-88887378D01*
X115994585Y-88924067D01*
X115988318Y-88933647D01*
X115962208Y-88979981D01*
X115944469Y-89027102D01*
X115932908Y-89082251D01*
X115925331Y-89152667D01*
X115924839Y-89159650D01*
X115923062Y-89197641D01*
X115921444Y-89251576D01*
X115919999Y-89318703D01*
X115918740Y-89396271D01*
X115917680Y-89481528D01*
X115916829Y-89571724D01*
X115916203Y-89664107D01*
X115915812Y-89755925D01*
X115915670Y-89844427D01*
X115915790Y-89926862D01*
X115916183Y-90000479D01*
X115916862Y-90062526D01*
X115917841Y-90110251D01*
X115919132Y-90140904D01*
X115920747Y-90151733D01*
X115928957Y-90147333D01*
X115950647Y-90132362D01*
X115980014Y-90110448D01*
X116028879Y-90076236D01*
X116117125Y-90029714D01*
X116215916Y-89996046D01*
X116328510Y-89974231D01*
X116458164Y-89963265D01*
X116550670Y-89962219D01*
X116672011Y-89972014D01*
X116782099Y-89996174D01*
X116885389Y-90035785D01*
X116986338Y-90091932D01*
X117031503Y-90122883D01*
X117136911Y-90214115D01*
X117228538Y-90323106D01*
X117306332Y-90449726D01*
X117370241Y-90593845D01*
X117420214Y-90755332D01*
X117456198Y-90934059D01*
X117478143Y-91129895D01*
X117483900Y-91285934D01*
X117485994Y-91342711D01*
G37*
X120027755Y-91743467D02*
X120027261Y-91777363D01*
X120023632Y-91852202D01*
X120016022Y-91914401D01*
X120003688Y-91970984D01*
X119959313Y-92097076D01*
X119896400Y-92211679D01*
X119816238Y-92312568D01*
X119719740Y-92398924D01*
X119607822Y-92469932D01*
X119481397Y-92524776D01*
X119341378Y-92562638D01*
X119305149Y-92568351D01*
X119226155Y-92574313D01*
X119137841Y-92574646D01*
X119048075Y-92569659D01*
X118964722Y-92559666D01*
X118895651Y-92544978D01*
X118809187Y-92514749D01*
X118699286Y-92460057D01*
X118601956Y-92392543D01*
X118539867Y-92341556D01*
X118536605Y-92437622D01*
X118533343Y-92533689D01*
X118110450Y-92533689D01*
X118099543Y-92533686D01*
X118005056Y-92533380D01*
X117918331Y-92532616D01*
X117841837Y-92531451D01*
X117778043Y-92529942D01*
X117729418Y-92528147D01*
X117698433Y-92526121D01*
X117687556Y-92523922D01*
X117687578Y-92523463D01*
X117694614Y-92507910D01*
X117710434Y-92485071D01*
X117714734Y-92479638D01*
X117725777Y-92465606D01*
X117735311Y-92452186D01*
X117743461Y-92437722D01*
X117750352Y-92420556D01*
X117756111Y-92399034D01*
X117760862Y-92371498D01*
X117764731Y-92336292D01*
X117767844Y-92291760D01*
X117770325Y-92236246D01*
X117772300Y-92168093D01*
X117773894Y-92085645D01*
X117775234Y-91987246D01*
X117776444Y-91871239D01*
X117777649Y-91735968D01*
X117778595Y-91624586D01*
X118579378Y-91624586D01*
X118579378Y-91820462D01*
X118624048Y-91876973D01*
X118636785Y-91892212D01*
X118683604Y-91934844D01*
X118744255Y-91970672D01*
X118754897Y-91975850D01*
X118793676Y-91992745D01*
X118828692Y-92002909D01*
X118868722Y-92008325D01*
X118922541Y-92010978D01*
X118940648Y-92011383D01*
X119016011Y-92008540D01*
X119076743Y-91996620D01*
X119128452Y-91974037D01*
X119176746Y-91939211D01*
X119181803Y-91934798D01*
X119230272Y-91879160D01*
X119258459Y-91815333D01*
X119267752Y-91740282D01*
X119260520Y-91668693D01*
X119235796Y-91605645D01*
X119191249Y-91547758D01*
X119136319Y-91500808D01*
X119063894Y-91460961D01*
X118977340Y-91433263D01*
X118874670Y-91417096D01*
X118753894Y-91411842D01*
X118745007Y-91411857D01*
X118689660Y-91412655D01*
X118642736Y-91414488D01*
X118608953Y-91417111D01*
X118593028Y-91420274D01*
X118588943Y-91426741D01*
X118584572Y-91448875D01*
X118581604Y-91487988D01*
X118579914Y-91545939D01*
X118579378Y-91624586D01*
X117778595Y-91624586D01*
X117778975Y-91579778D01*
X117780228Y-91437012D01*
X117781651Y-91291942D01*
X117783176Y-91166027D01*
X117784933Y-91057436D01*
X117787051Y-90964334D01*
X117789660Y-90884891D01*
X117792890Y-90817273D01*
X117796869Y-90759649D01*
X117801728Y-90710185D01*
X117807597Y-90667050D01*
X117814604Y-90628410D01*
X117822880Y-90592434D01*
X117832554Y-90557289D01*
X117843756Y-90521142D01*
X117856616Y-90482161D01*
X117872090Y-90439091D01*
X117914994Y-90346871D01*
X117968735Y-90267099D01*
X118037576Y-90192965D01*
X118115185Y-90129405D01*
X118219761Y-90067725D01*
X118339244Y-90020202D01*
X118474508Y-89986567D01*
X118626426Y-89966552D01*
X118795872Y-89959889D01*
X118853890Y-89960287D01*
X118919398Y-89962335D01*
X118980693Y-89966704D01*
X119042097Y-89974035D01*
X119107932Y-89984969D01*
X119182520Y-90000147D01*
X119270184Y-90020209D01*
X119375245Y-90045797D01*
X119403806Y-90052820D01*
X119479054Y-90070776D01*
X119549388Y-90086820D01*
X119610567Y-90100028D01*
X119658354Y-90109474D01*
X119688511Y-90114231D01*
X119716783Y-90117910D01*
X119743060Y-90123187D01*
X119753059Y-90127942D01*
X119749952Y-90136781D01*
X119739194Y-90164072D01*
X119721864Y-90206906D01*
X119699126Y-90262425D01*
X119672147Y-90327772D01*
X119642090Y-90400089D01*
X119635493Y-90415879D01*
X119596907Y-90506484D01*
X119565768Y-90576217D01*
X119541917Y-90625405D01*
X119525198Y-90654374D01*
X119515454Y-90663452D01*
X119507766Y-90661405D01*
X119481415Y-90651760D01*
X119442982Y-90636190D01*
X119397822Y-90616815D01*
X119303293Y-90578814D01*
X119166480Y-90537780D01*
X119025289Y-90512612D01*
X118987314Y-90508611D01*
X118884059Y-90506447D01*
X118796952Y-90519622D01*
X118725129Y-90548756D01*
X118667731Y-90594466D01*
X118623896Y-90657372D01*
X118592762Y-90738092D01*
X118573470Y-90837245D01*
X118566050Y-90896224D01*
X118727936Y-90889445D01*
X118854495Y-90887813D01*
X119005951Y-90894194D01*
X119154396Y-90908777D01*
X119290578Y-90930882D01*
X119355245Y-90945821D01*
X119487490Y-90988741D01*
X119609762Y-91045340D01*
X119719685Y-91114017D01*
X119814883Y-91193170D01*
X119892980Y-91281196D01*
X119951599Y-91376493D01*
X119975595Y-91428864D01*
X120001232Y-91499590D01*
X120017478Y-91570812D01*
X120025822Y-91649712D01*
X120027690Y-91740282D01*
X120027755Y-91743467D01*
G36*
X120027755Y-91743467D02*
G01*
X120027261Y-91777363D01*
X120023632Y-91852202D01*
X120016022Y-91914401D01*
X120003688Y-91970984D01*
X119959313Y-92097076D01*
X119896400Y-92211679D01*
X119816238Y-92312568D01*
X119719740Y-92398924D01*
X119607822Y-92469932D01*
X119481397Y-92524776D01*
X119341378Y-92562638D01*
X119305149Y-92568351D01*
X119226155Y-92574313D01*
X119137841Y-92574646D01*
X119048075Y-92569659D01*
X118964722Y-92559666D01*
X118895651Y-92544978D01*
X118809187Y-92514749D01*
X118699286Y-92460057D01*
X118601956Y-92392543D01*
X118539867Y-92341556D01*
X118536605Y-92437622D01*
X118533343Y-92533689D01*
X118110450Y-92533689D01*
X118099543Y-92533686D01*
X118005056Y-92533380D01*
X117918331Y-92532616D01*
X117841837Y-92531451D01*
X117778043Y-92529942D01*
X117729418Y-92528147D01*
X117698433Y-92526121D01*
X117687556Y-92523922D01*
X117687578Y-92523463D01*
X117694614Y-92507910D01*
X117710434Y-92485071D01*
X117714734Y-92479638D01*
X117725777Y-92465606D01*
X117735311Y-92452186D01*
X117743461Y-92437722D01*
X117750352Y-92420556D01*
X117756111Y-92399034D01*
X117760862Y-92371498D01*
X117764731Y-92336292D01*
X117767844Y-92291760D01*
X117770325Y-92236246D01*
X117772300Y-92168093D01*
X117773894Y-92085645D01*
X117775234Y-91987246D01*
X117776444Y-91871239D01*
X117777649Y-91735968D01*
X117778595Y-91624586D01*
X118579378Y-91624586D01*
X118579378Y-91820462D01*
X118624048Y-91876973D01*
X118636785Y-91892212D01*
X118683604Y-91934844D01*
X118744255Y-91970672D01*
X118754897Y-91975850D01*
X118793676Y-91992745D01*
X118828692Y-92002909D01*
X118868722Y-92008325D01*
X118922541Y-92010978D01*
X118940648Y-92011383D01*
X119016011Y-92008540D01*
X119076743Y-91996620D01*
X119128452Y-91974037D01*
X119176746Y-91939211D01*
X119181803Y-91934798D01*
X119230272Y-91879160D01*
X119258459Y-91815333D01*
X119267752Y-91740282D01*
X119260520Y-91668693D01*
X119235796Y-91605645D01*
X119191249Y-91547758D01*
X119136319Y-91500808D01*
X119063894Y-91460961D01*
X118977340Y-91433263D01*
X118874670Y-91417096D01*
X118753894Y-91411842D01*
X118745007Y-91411857D01*
X118689660Y-91412655D01*
X118642736Y-91414488D01*
X118608953Y-91417111D01*
X118593028Y-91420274D01*
X118588943Y-91426741D01*
X118584572Y-91448875D01*
X118581604Y-91487988D01*
X118579914Y-91545939D01*
X118579378Y-91624586D01*
X117778595Y-91624586D01*
X117778975Y-91579778D01*
X117780228Y-91437012D01*
X117781651Y-91291942D01*
X117783176Y-91166027D01*
X117784933Y-91057436D01*
X117787051Y-90964334D01*
X117789660Y-90884891D01*
X117792890Y-90817273D01*
X117796869Y-90759649D01*
X117801728Y-90710185D01*
X117807597Y-90667050D01*
X117814604Y-90628410D01*
X117822880Y-90592434D01*
X117832554Y-90557289D01*
X117843756Y-90521142D01*
X117856616Y-90482161D01*
X117872090Y-90439091D01*
X117914994Y-90346871D01*
X117968735Y-90267099D01*
X118037576Y-90192965D01*
X118115185Y-90129405D01*
X118219761Y-90067725D01*
X118339244Y-90020202D01*
X118474508Y-89986567D01*
X118626426Y-89966552D01*
X118795872Y-89959889D01*
X118853890Y-89960287D01*
X118919398Y-89962335D01*
X118980693Y-89966704D01*
X119042097Y-89974035D01*
X119107932Y-89984969D01*
X119182520Y-90000147D01*
X119270184Y-90020209D01*
X119375245Y-90045797D01*
X119403806Y-90052820D01*
X119479054Y-90070776D01*
X119549388Y-90086820D01*
X119610567Y-90100028D01*
X119658354Y-90109474D01*
X119688511Y-90114231D01*
X119716783Y-90117910D01*
X119743060Y-90123187D01*
X119753059Y-90127942D01*
X119749952Y-90136781D01*
X119739194Y-90164072D01*
X119721864Y-90206906D01*
X119699126Y-90262425D01*
X119672147Y-90327772D01*
X119642090Y-90400089D01*
X119635493Y-90415879D01*
X119596907Y-90506484D01*
X119565768Y-90576217D01*
X119541917Y-90625405D01*
X119525198Y-90654374D01*
X119515454Y-90663452D01*
X119507766Y-90661405D01*
X119481415Y-90651760D01*
X119442982Y-90636190D01*
X119397822Y-90616815D01*
X119303293Y-90578814D01*
X119166480Y-90537780D01*
X119025289Y-90512612D01*
X118987314Y-90508611D01*
X118884059Y-90506447D01*
X118796952Y-90519622D01*
X118725129Y-90548756D01*
X118667731Y-90594466D01*
X118623896Y-90657372D01*
X118592762Y-90738092D01*
X118573470Y-90837245D01*
X118566050Y-90896224D01*
X118727936Y-90889445D01*
X118854495Y-90887813D01*
X119005951Y-90894194D01*
X119154396Y-90908777D01*
X119290578Y-90930882D01*
X119355245Y-90945821D01*
X119487490Y-90988741D01*
X119609762Y-91045340D01*
X119719685Y-91114017D01*
X119814883Y-91193170D01*
X119892980Y-91281196D01*
X119951599Y-91376493D01*
X119975595Y-91428864D01*
X120001232Y-91499590D01*
X120017478Y-91570812D01*
X120025822Y-91649712D01*
X120027690Y-91740282D01*
X120027755Y-91743467D01*
G37*
X127575614Y-89211792D02*
X127576059Y-89343011D01*
X127576362Y-89490216D01*
X127576548Y-89654349D01*
X127576642Y-89836352D01*
X127576671Y-90037165D01*
X127576661Y-90257732D01*
X127576636Y-90498992D01*
X127576622Y-90761889D01*
X127576622Y-90804040D01*
X127576646Y-91064668D01*
X127576685Y-91303796D01*
X127576708Y-91522360D01*
X127576687Y-91721295D01*
X127576593Y-91901535D01*
X127576395Y-92064015D01*
X127576063Y-92209670D01*
X127575569Y-92339434D01*
X127574883Y-92454243D01*
X127573976Y-92555030D01*
X127572817Y-92642730D01*
X127571378Y-92718279D01*
X127569629Y-92782611D01*
X127567540Y-92836661D01*
X127565083Y-92881363D01*
X127562227Y-92917652D01*
X127558943Y-92946463D01*
X127555202Y-92968731D01*
X127550974Y-92985390D01*
X127546229Y-92997375D01*
X127540939Y-93005621D01*
X127535073Y-93011062D01*
X127528602Y-93014634D01*
X127521497Y-93017270D01*
X127513728Y-93019906D01*
X127505266Y-93023477D01*
X127500908Y-93025145D01*
X127492395Y-93027111D01*
X127479694Y-93028911D01*
X127461885Y-93030555D01*
X127438049Y-93032047D01*
X127407266Y-93033397D01*
X127368617Y-93034611D01*
X127321182Y-93035697D01*
X127264043Y-93036661D01*
X127196279Y-93037511D01*
X127116971Y-93038253D01*
X127025199Y-93038897D01*
X126920044Y-93039447D01*
X126800587Y-93039913D01*
X126665908Y-93040300D01*
X126515088Y-93040616D01*
X126347206Y-93040869D01*
X126161345Y-93041066D01*
X125956583Y-93041213D01*
X125732002Y-93041318D01*
X125486682Y-93041389D01*
X125219704Y-93041432D01*
X125181321Y-93041437D01*
X124915922Y-93041480D01*
X124672050Y-93041525D01*
X124448783Y-93041548D01*
X124245196Y-93041524D01*
X124060367Y-93041430D01*
X123893373Y-93041243D01*
X123743290Y-93040939D01*
X123609196Y-93040494D01*
X123490166Y-93039885D01*
X123385279Y-93039089D01*
X123293610Y-93038080D01*
X123214237Y-93036837D01*
X123146237Y-93035335D01*
X123088686Y-93033551D01*
X123040662Y-93031461D01*
X123001240Y-93029042D01*
X122969499Y-93026270D01*
X122944514Y-93023121D01*
X122925364Y-93019572D01*
X122911123Y-93015598D01*
X122900871Y-93011178D01*
X122893682Y-93006286D01*
X122888635Y-93000900D01*
X122884805Y-92994996D01*
X122881271Y-92988549D01*
X122877108Y-92981537D01*
X122876025Y-92979687D01*
X122873813Y-92974180D01*
X122871786Y-92965868D01*
X122869938Y-92953809D01*
X122868261Y-92937063D01*
X122866745Y-92914687D01*
X122865383Y-92885740D01*
X122864167Y-92849280D01*
X122863089Y-92804367D01*
X122862140Y-92750057D01*
X122861312Y-92685410D01*
X122860597Y-92609484D01*
X122859987Y-92521338D01*
X122859942Y-92512493D01*
X123151378Y-92512493D01*
X123155260Y-92513765D01*
X123178520Y-92515791D01*
X123220874Y-92517626D01*
X123280132Y-92519227D01*
X123354107Y-92520549D01*
X123440610Y-92521548D01*
X123537452Y-92522180D01*
X123642445Y-92522400D01*
X124340651Y-92522400D01*
X125495090Y-92522400D01*
X125494456Y-92446200D01*
X125495574Y-92404160D01*
X125501304Y-92368334D01*
X125513890Y-92330772D01*
X125535568Y-92282577D01*
X125538789Y-92275897D01*
X125564188Y-92226359D01*
X125590996Y-92178369D01*
X125613917Y-92141466D01*
X125618485Y-92134834D01*
X125640516Y-92103593D01*
X125672693Y-92058654D01*
X125713457Y-92002147D01*
X125761245Y-91936204D01*
X125814498Y-91862957D01*
X125871655Y-91784536D01*
X125931155Y-91703072D01*
X125991437Y-91620698D01*
X126050940Y-91539544D01*
X126108105Y-91461742D01*
X126161370Y-91389423D01*
X126209174Y-91324718D01*
X126249957Y-91269759D01*
X126282158Y-91226676D01*
X126304216Y-91197602D01*
X126314571Y-91184667D01*
X126319044Y-91180351D01*
X126323236Y-91178312D01*
X126326643Y-91180926D01*
X126329325Y-91189986D01*
X126331341Y-91207285D01*
X126332748Y-91234614D01*
X126333605Y-91273765D01*
X126333970Y-91326533D01*
X126333903Y-91394707D01*
X126333460Y-91480082D01*
X126332702Y-91584449D01*
X126331685Y-91709600D01*
X126331308Y-91754300D01*
X126330169Y-91875395D01*
X126328972Y-91976688D01*
X126327636Y-92060262D01*
X126326077Y-92128204D01*
X126324215Y-92182599D01*
X126321966Y-92225532D01*
X126319248Y-92259089D01*
X126315979Y-92285355D01*
X126312078Y-92306416D01*
X126307461Y-92324357D01*
X126299192Y-92350770D01*
X126275583Y-92412772D01*
X126249685Y-92465573D01*
X126224535Y-92502645D01*
X126223339Y-92504075D01*
X126221168Y-92508424D01*
X126223328Y-92512026D01*
X126231644Y-92514951D01*
X126247940Y-92517269D01*
X126274041Y-92519051D01*
X126311771Y-92520367D01*
X126362956Y-92521286D01*
X126429420Y-92521878D01*
X126512987Y-92522215D01*
X126615483Y-92522365D01*
X126738732Y-92522400D01*
X127270296Y-92522400D01*
X127231523Y-92464783D01*
X127225432Y-92455893D01*
X127214976Y-92441069D01*
X127205579Y-92427422D01*
X127197183Y-92413765D01*
X127189733Y-92398911D01*
X127183173Y-92381670D01*
X127177446Y-92360855D01*
X127172495Y-92335280D01*
X127168266Y-92303755D01*
X127164701Y-92265093D01*
X127161744Y-92218107D01*
X127159340Y-92161608D01*
X127157431Y-92094409D01*
X127155962Y-92015322D01*
X127154876Y-91923160D01*
X127154118Y-91816734D01*
X127153630Y-91694857D01*
X127153358Y-91556341D01*
X127153243Y-91399999D01*
X127153231Y-91224642D01*
X127153265Y-91029082D01*
X127153289Y-90812133D01*
X127153280Y-90689513D01*
X127153243Y-90484447D01*
X127153227Y-90300116D01*
X127153288Y-90135334D01*
X127153484Y-89988916D01*
X127153870Y-89859674D01*
X127154505Y-89746422D01*
X127155444Y-89647975D01*
X127156745Y-89563144D01*
X127158464Y-89490744D01*
X127160659Y-89429589D01*
X127163385Y-89378492D01*
X127166701Y-89336267D01*
X127170662Y-89301727D01*
X127175325Y-89273686D01*
X127180747Y-89250958D01*
X127186986Y-89232356D01*
X127194097Y-89216693D01*
X127202138Y-89202784D01*
X127211166Y-89189441D01*
X127221236Y-89175479D01*
X127232407Y-89159711D01*
X127272197Y-89101867D01*
X126212314Y-89101867D01*
X126250311Y-89164966D01*
X126264993Y-89190005D01*
X126279531Y-89217586D01*
X126291627Y-89245700D01*
X126301532Y-89276551D01*
X126309494Y-89312344D01*
X126315761Y-89355283D01*
X126320582Y-89407574D01*
X126324206Y-89471419D01*
X126326881Y-89549025D01*
X126328857Y-89642594D01*
X126330382Y-89754333D01*
X126331704Y-89886445D01*
X126332613Y-90006434D01*
X126333020Y-90123063D01*
X126332767Y-90218531D01*
X126331857Y-90292556D01*
X126330293Y-90344855D01*
X126328079Y-90375149D01*
X126325220Y-90383156D01*
X126322161Y-90379858D01*
X126304006Y-90358408D01*
X126274275Y-90321889D01*
X126234639Y-90272442D01*
X126186771Y-90212207D01*
X126132343Y-90143327D01*
X126073027Y-90067943D01*
X126010495Y-89988196D01*
X125946421Y-89906228D01*
X125882475Y-89824180D01*
X125820331Y-89744194D01*
X125761661Y-89668411D01*
X125708137Y-89598973D01*
X125661430Y-89538021D01*
X125623214Y-89487696D01*
X125595161Y-89450140D01*
X125578943Y-89427495D01*
X125533635Y-89355212D01*
X125493661Y-89275463D01*
X125472130Y-89207188D01*
X125468827Y-89149844D01*
X125474116Y-89101867D01*
X124342356Y-89102117D01*
X124381867Y-89132722D01*
X124391248Y-89140089D01*
X124454183Y-89194438D01*
X124522997Y-89262259D01*
X124599596Y-89345516D01*
X124685888Y-89446178D01*
X124703052Y-89466847D01*
X124743833Y-89516409D01*
X124793588Y-89577326D01*
X124850955Y-89647898D01*
X124914569Y-89726424D01*
X124983069Y-89811204D01*
X125055090Y-89900537D01*
X125129270Y-89992722D01*
X125144517Y-90011702D01*
X125204246Y-90086060D01*
X125278653Y-90178848D01*
X125351131Y-90269388D01*
X125420314Y-90355978D01*
X125484841Y-90436918D01*
X125543347Y-90510506D01*
X125594470Y-90575044D01*
X125636847Y-90628829D01*
X125669115Y-90670162D01*
X125689910Y-90697342D01*
X125697869Y-90708668D01*
X125696111Y-90712771D01*
X125683230Y-90733334D01*
X125658885Y-90769561D01*
X125624247Y-90819824D01*
X125580486Y-90882492D01*
X125528775Y-90955936D01*
X125470284Y-91038527D01*
X125406184Y-91128636D01*
X125337646Y-91224631D01*
X125265843Y-91324885D01*
X125191944Y-91427768D01*
X125117121Y-91531650D01*
X125042545Y-91634901D01*
X124969387Y-91735892D01*
X124898819Y-91832994D01*
X124832011Y-91924577D01*
X124770135Y-92009011D01*
X124714361Y-92084667D01*
X124665862Y-92149916D01*
X124625807Y-92203128D01*
X124595369Y-92242673D01*
X124574944Y-92268026D01*
X124528899Y-92322295D01*
X124478612Y-92378775D01*
X124431815Y-92428669D01*
X124340651Y-92522400D01*
X123642445Y-92522400D01*
X123711356Y-92522349D01*
X123809607Y-92522091D01*
X123899030Y-92521637D01*
X123977333Y-92521010D01*
X124042223Y-92520235D01*
X124091411Y-92519335D01*
X124122604Y-92518334D01*
X124133511Y-92517257D01*
X124132322Y-92514037D01*
X124122176Y-92496452D01*
X124105040Y-92470158D01*
X124096540Y-92457691D01*
X124087329Y-92443622D01*
X124079233Y-92429351D01*
X124072185Y-92413479D01*
X124066117Y-92394609D01*
X124060961Y-92371341D01*
X124056651Y-92342278D01*
X124053119Y-92306021D01*
X124050297Y-92261170D01*
X124048118Y-92206328D01*
X124046514Y-92140097D01*
X124045419Y-92061077D01*
X124044765Y-91967871D01*
X124044484Y-91859079D01*
X124044509Y-91733303D01*
X124044772Y-91589145D01*
X124045206Y-91425207D01*
X124045745Y-91240089D01*
X124046279Y-91061232D01*
X124046805Y-90902374D01*
X124047350Y-90763316D01*
X124047945Y-90642665D01*
X124048619Y-90539028D01*
X124049403Y-90451011D01*
X124050326Y-90377223D01*
X124051419Y-90316269D01*
X124052712Y-90266757D01*
X124054235Y-90227293D01*
X124056019Y-90196484D01*
X124058092Y-90172938D01*
X124060486Y-90155260D01*
X124063230Y-90142059D01*
X124066356Y-90131940D01*
X124069892Y-90123511D01*
X124073791Y-90115375D01*
X124093438Y-90078544D01*
X124112225Y-90048391D01*
X124113272Y-90046908D01*
X124127602Y-90024659D01*
X124133511Y-90011702D01*
X124132504Y-90011249D01*
X124115305Y-90009803D01*
X124078656Y-90008480D01*
X124024962Y-90007316D01*
X123956630Y-90006347D01*
X123876064Y-90005611D01*
X123785670Y-90005142D01*
X123687853Y-90004978D01*
X123242195Y-90004978D01*
X123239120Y-91181845D01*
X123236045Y-92358711D01*
X123209407Y-92417622D01*
X123197485Y-92442183D01*
X123180246Y-92472434D01*
X123167074Y-92489560D01*
X123159076Y-92497591D01*
X123151378Y-92512493D01*
X122859942Y-92512493D01*
X122859474Y-92420029D01*
X122859050Y-92304617D01*
X122858706Y-92174160D01*
X122858434Y-92027716D01*
X122858227Y-91864344D01*
X122858076Y-91683101D01*
X122857972Y-91483048D01*
X122857908Y-91263241D01*
X122857876Y-91022739D01*
X122857867Y-90760602D01*
X122857867Y-88569031D01*
X122896249Y-88530649D01*
X122923355Y-88506911D01*
X122950253Y-88495111D01*
X122986560Y-88492267D01*
X123038489Y-88492267D01*
X123038489Y-88580206D01*
X123040427Y-88630102D01*
X123059199Y-88740523D01*
X123096217Y-88841987D01*
X123149369Y-88933152D01*
X123216546Y-89012673D01*
X123295638Y-89079205D01*
X123384534Y-89131406D01*
X123481125Y-89167930D01*
X123583300Y-89187434D01*
X123688950Y-89188573D01*
X123795964Y-89170005D01*
X123902232Y-89130384D01*
X123999219Y-89072516D01*
X124084293Y-88997684D01*
X124153015Y-88909615D01*
X124203918Y-88810616D01*
X124235535Y-88702993D01*
X124246400Y-88589054D01*
X124246400Y-88492267D01*
X125866753Y-88492267D01*
X126077897Y-88492280D01*
X126282020Y-88492330D01*
X126465686Y-88492430D01*
X126629991Y-88492592D01*
X126776029Y-88492829D01*
X126904894Y-88493153D01*
X127017683Y-88493575D01*
X127115488Y-88494109D01*
X127199404Y-88494767D01*
X127270527Y-88495561D01*
X127329950Y-88496504D01*
X127378768Y-88497608D01*
X127418077Y-88498884D01*
X127448969Y-88500347D01*
X127472541Y-88502007D01*
X127489886Y-88503878D01*
X127502099Y-88505972D01*
X127510275Y-88508300D01*
X127515508Y-88510876D01*
X127521504Y-88514445D01*
X127528279Y-88517978D01*
X127534478Y-88521488D01*
X127540126Y-88525918D01*
X127545247Y-88532208D01*
X127549869Y-88541301D01*
X127554015Y-88554139D01*
X127557713Y-88571662D01*
X127560987Y-88594813D01*
X127563863Y-88624534D01*
X127566367Y-88661765D01*
X127568524Y-88707449D01*
X127570360Y-88762527D01*
X127571900Y-88827941D01*
X127573170Y-88904633D01*
X127574195Y-88993544D01*
X127575001Y-89095617D01*
X127575034Y-89101867D01*
X127575614Y-89211792D01*
G36*
X127575614Y-89211792D02*
G01*
X127576059Y-89343011D01*
X127576362Y-89490216D01*
X127576548Y-89654349D01*
X127576642Y-89836352D01*
X127576671Y-90037165D01*
X127576661Y-90257732D01*
X127576636Y-90498992D01*
X127576622Y-90761889D01*
X127576622Y-90804040D01*
X127576646Y-91064668D01*
X127576685Y-91303796D01*
X127576708Y-91522360D01*
X127576687Y-91721295D01*
X127576593Y-91901535D01*
X127576395Y-92064015D01*
X127576063Y-92209670D01*
X127575569Y-92339434D01*
X127574883Y-92454243D01*
X127573976Y-92555030D01*
X127572817Y-92642730D01*
X127571378Y-92718279D01*
X127569629Y-92782611D01*
X127567540Y-92836661D01*
X127565083Y-92881363D01*
X127562227Y-92917652D01*
X127558943Y-92946463D01*
X127555202Y-92968731D01*
X127550974Y-92985390D01*
X127546229Y-92997375D01*
X127540939Y-93005621D01*
X127535073Y-93011062D01*
X127528602Y-93014634D01*
X127521497Y-93017270D01*
X127513728Y-93019906D01*
X127505266Y-93023477D01*
X127500908Y-93025145D01*
X127492395Y-93027111D01*
X127479694Y-93028911D01*
X127461885Y-93030555D01*
X127438049Y-93032047D01*
X127407266Y-93033397D01*
X127368617Y-93034611D01*
X127321182Y-93035697D01*
X127264043Y-93036661D01*
X127196279Y-93037511D01*
X127116971Y-93038253D01*
X127025199Y-93038897D01*
X126920044Y-93039447D01*
X126800587Y-93039913D01*
X126665908Y-93040300D01*
X126515088Y-93040616D01*
X126347206Y-93040869D01*
X126161345Y-93041066D01*
X125956583Y-93041213D01*
X125732002Y-93041318D01*
X125486682Y-93041389D01*
X125219704Y-93041432D01*
X125181321Y-93041437D01*
X124915922Y-93041480D01*
X124672050Y-93041525D01*
X124448783Y-93041548D01*
X124245196Y-93041524D01*
X124060367Y-93041430D01*
X123893373Y-93041243D01*
X123743290Y-93040939D01*
X123609196Y-93040494D01*
X123490166Y-93039885D01*
X123385279Y-93039089D01*
X123293610Y-93038080D01*
X123214237Y-93036837D01*
X123146237Y-93035335D01*
X123088686Y-93033551D01*
X123040662Y-93031461D01*
X123001240Y-93029042D01*
X122969499Y-93026270D01*
X122944514Y-93023121D01*
X122925364Y-93019572D01*
X122911123Y-93015598D01*
X122900871Y-93011178D01*
X122893682Y-93006286D01*
X122888635Y-93000900D01*
X122884805Y-92994996D01*
X122881271Y-92988549D01*
X122877108Y-92981537D01*
X122876025Y-92979687D01*
X122873813Y-92974180D01*
X122871786Y-92965868D01*
X122869938Y-92953809D01*
X122868261Y-92937063D01*
X122866745Y-92914687D01*
X122865383Y-92885740D01*
X122864167Y-92849280D01*
X122863089Y-92804367D01*
X122862140Y-92750057D01*
X122861312Y-92685410D01*
X122860597Y-92609484D01*
X122859987Y-92521338D01*
X122859942Y-92512493D01*
X123151378Y-92512493D01*
X123155260Y-92513765D01*
X123178520Y-92515791D01*
X123220874Y-92517626D01*
X123280132Y-92519227D01*
X123354107Y-92520549D01*
X123440610Y-92521548D01*
X123537452Y-92522180D01*
X123642445Y-92522400D01*
X124340651Y-92522400D01*
X125495090Y-92522400D01*
X125494456Y-92446200D01*
X125495574Y-92404160D01*
X125501304Y-92368334D01*
X125513890Y-92330772D01*
X125535568Y-92282577D01*
X125538789Y-92275897D01*
X125564188Y-92226359D01*
X125590996Y-92178369D01*
X125613917Y-92141466D01*
X125618485Y-92134834D01*
X125640516Y-92103593D01*
X125672693Y-92058654D01*
X125713457Y-92002147D01*
X125761245Y-91936204D01*
X125814498Y-91862957D01*
X125871655Y-91784536D01*
X125931155Y-91703072D01*
X125991437Y-91620698D01*
X126050940Y-91539544D01*
X126108105Y-91461742D01*
X126161370Y-91389423D01*
X126209174Y-91324718D01*
X126249957Y-91269759D01*
X126282158Y-91226676D01*
X126304216Y-91197602D01*
X126314571Y-91184667D01*
X126319044Y-91180351D01*
X126323236Y-91178312D01*
X126326643Y-91180926D01*
X126329325Y-91189986D01*
X126331341Y-91207285D01*
X126332748Y-91234614D01*
X126333605Y-91273765D01*
X126333970Y-91326533D01*
X126333903Y-91394707D01*
X126333460Y-91480082D01*
X126332702Y-91584449D01*
X126331685Y-91709600D01*
X126331308Y-91754300D01*
X126330169Y-91875395D01*
X126328972Y-91976688D01*
X126327636Y-92060262D01*
X126326077Y-92128204D01*
X126324215Y-92182599D01*
X126321966Y-92225532D01*
X126319248Y-92259089D01*
X126315979Y-92285355D01*
X126312078Y-92306416D01*
X126307461Y-92324357D01*
X126299192Y-92350770D01*
X126275583Y-92412772D01*
X126249685Y-92465573D01*
X126224535Y-92502645D01*
X126223339Y-92504075D01*
X126221168Y-92508424D01*
X126223328Y-92512026D01*
X126231644Y-92514951D01*
X126247940Y-92517269D01*
X126274041Y-92519051D01*
X126311771Y-92520367D01*
X126362956Y-92521286D01*
X126429420Y-92521878D01*
X126512987Y-92522215D01*
X126615483Y-92522365D01*
X126738732Y-92522400D01*
X127270296Y-92522400D01*
X127231523Y-92464783D01*
X127225432Y-92455893D01*
X127214976Y-92441069D01*
X127205579Y-92427422D01*
X127197183Y-92413765D01*
X127189733Y-92398911D01*
X127183173Y-92381670D01*
X127177446Y-92360855D01*
X127172495Y-92335280D01*
X127168266Y-92303755D01*
X127164701Y-92265093D01*
X127161744Y-92218107D01*
X127159340Y-92161608D01*
X127157431Y-92094409D01*
X127155962Y-92015322D01*
X127154876Y-91923160D01*
X127154118Y-91816734D01*
X127153630Y-91694857D01*
X127153358Y-91556341D01*
X127153243Y-91399999D01*
X127153231Y-91224642D01*
X127153265Y-91029082D01*
X127153289Y-90812133D01*
X127153280Y-90689513D01*
X127153243Y-90484447D01*
X127153227Y-90300116D01*
X127153288Y-90135334D01*
X127153484Y-89988916D01*
X127153870Y-89859674D01*
X127154505Y-89746422D01*
X127155444Y-89647975D01*
X127156745Y-89563144D01*
X127158464Y-89490744D01*
X127160659Y-89429589D01*
X127163385Y-89378492D01*
X127166701Y-89336267D01*
X127170662Y-89301727D01*
X127175325Y-89273686D01*
X127180747Y-89250958D01*
X127186986Y-89232356D01*
X127194097Y-89216693D01*
X127202138Y-89202784D01*
X127211166Y-89189441D01*
X127221236Y-89175479D01*
X127232407Y-89159711D01*
X127272197Y-89101867D01*
X126212314Y-89101867D01*
X126250311Y-89164966D01*
X126264993Y-89190005D01*
X126279531Y-89217586D01*
X126291627Y-89245700D01*
X126301532Y-89276551D01*
X126309494Y-89312344D01*
X126315761Y-89355283D01*
X126320582Y-89407574D01*
X126324206Y-89471419D01*
X126326881Y-89549025D01*
X126328857Y-89642594D01*
X126330382Y-89754333D01*
X126331704Y-89886445D01*
X126332613Y-90006434D01*
X126333020Y-90123063D01*
X126332767Y-90218531D01*
X126331857Y-90292556D01*
X126330293Y-90344855D01*
X126328079Y-90375149D01*
X126325220Y-90383156D01*
X126322161Y-90379858D01*
X126304006Y-90358408D01*
X126274275Y-90321889D01*
X126234639Y-90272442D01*
X126186771Y-90212207D01*
X126132343Y-90143327D01*
X126073027Y-90067943D01*
X126010495Y-89988196D01*
X125946421Y-89906228D01*
X125882475Y-89824180D01*
X125820331Y-89744194D01*
X125761661Y-89668411D01*
X125708137Y-89598973D01*
X125661430Y-89538021D01*
X125623214Y-89487696D01*
X125595161Y-89450140D01*
X125578943Y-89427495D01*
X125533635Y-89355212D01*
X125493661Y-89275463D01*
X125472130Y-89207188D01*
X125468827Y-89149844D01*
X125474116Y-89101867D01*
X124342356Y-89102117D01*
X124381867Y-89132722D01*
X124391248Y-89140089D01*
X124454183Y-89194438D01*
X124522997Y-89262259D01*
X124599596Y-89345516D01*
X124685888Y-89446178D01*
X124703052Y-89466847D01*
X124743833Y-89516409D01*
X124793588Y-89577326D01*
X124850955Y-89647898D01*
X124914569Y-89726424D01*
X124983069Y-89811204D01*
X125055090Y-89900537D01*
X125129270Y-89992722D01*
X125144517Y-90011702D01*
X125204246Y-90086060D01*
X125278653Y-90178848D01*
X125351131Y-90269388D01*
X125420314Y-90355978D01*
X125484841Y-90436918D01*
X125543347Y-90510506D01*
X125594470Y-90575044D01*
X125636847Y-90628829D01*
X125669115Y-90670162D01*
X125689910Y-90697342D01*
X125697869Y-90708668D01*
X125696111Y-90712771D01*
X125683230Y-90733334D01*
X125658885Y-90769561D01*
X125624247Y-90819824D01*
X125580486Y-90882492D01*
X125528775Y-90955936D01*
X125470284Y-91038527D01*
X125406184Y-91128636D01*
X125337646Y-91224631D01*
X125265843Y-91324885D01*
X125191944Y-91427768D01*
X125117121Y-91531650D01*
X125042545Y-91634901D01*
X124969387Y-91735892D01*
X124898819Y-91832994D01*
X124832011Y-91924577D01*
X124770135Y-92009011D01*
X124714361Y-92084667D01*
X124665862Y-92149916D01*
X124625807Y-92203128D01*
X124595369Y-92242673D01*
X124574944Y-92268026D01*
X124528899Y-92322295D01*
X124478612Y-92378775D01*
X124431815Y-92428669D01*
X124340651Y-92522400D01*
X123642445Y-92522400D01*
X123711356Y-92522349D01*
X123809607Y-92522091D01*
X123899030Y-92521637D01*
X123977333Y-92521010D01*
X124042223Y-92520235D01*
X124091411Y-92519335D01*
X124122604Y-92518334D01*
X124133511Y-92517257D01*
X124132322Y-92514037D01*
X124122176Y-92496452D01*
X124105040Y-92470158D01*
X124096540Y-92457691D01*
X124087329Y-92443622D01*
X124079233Y-92429351D01*
X124072185Y-92413479D01*
X124066117Y-92394609D01*
X124060961Y-92371341D01*
X124056651Y-92342278D01*
X124053119Y-92306021D01*
X124050297Y-92261170D01*
X124048118Y-92206328D01*
X124046514Y-92140097D01*
X124045419Y-92061077D01*
X124044765Y-91967871D01*
X124044484Y-91859079D01*
X124044509Y-91733303D01*
X124044772Y-91589145D01*
X124045206Y-91425207D01*
X124045745Y-91240089D01*
X124046279Y-91061232D01*
X124046805Y-90902374D01*
X124047350Y-90763316D01*
X124047945Y-90642665D01*
X124048619Y-90539028D01*
X124049403Y-90451011D01*
X124050326Y-90377223D01*
X124051419Y-90316269D01*
X124052712Y-90266757D01*
X124054235Y-90227293D01*
X124056019Y-90196484D01*
X124058092Y-90172938D01*
X124060486Y-90155260D01*
X124063230Y-90142059D01*
X124066356Y-90131940D01*
X124069892Y-90123511D01*
X124073791Y-90115375D01*
X124093438Y-90078544D01*
X124112225Y-90048391D01*
X124113272Y-90046908D01*
X124127602Y-90024659D01*
X124133511Y-90011702D01*
X124132504Y-90011249D01*
X124115305Y-90009803D01*
X124078656Y-90008480D01*
X124024962Y-90007316D01*
X123956630Y-90006347D01*
X123876064Y-90005611D01*
X123785670Y-90005142D01*
X123687853Y-90004978D01*
X123242195Y-90004978D01*
X123239120Y-91181845D01*
X123236045Y-92358711D01*
X123209407Y-92417622D01*
X123197485Y-92442183D01*
X123180246Y-92472434D01*
X123167074Y-92489560D01*
X123159076Y-92497591D01*
X123151378Y-92512493D01*
X122859942Y-92512493D01*
X122859474Y-92420029D01*
X122859050Y-92304617D01*
X122858706Y-92174160D01*
X122858434Y-92027716D01*
X122858227Y-91864344D01*
X122858076Y-91683101D01*
X122857972Y-91483048D01*
X122857908Y-91263241D01*
X122857876Y-91022739D01*
X122857867Y-90760602D01*
X122857867Y-88569031D01*
X122896249Y-88530649D01*
X122923355Y-88506911D01*
X122950253Y-88495111D01*
X122986560Y-88492267D01*
X123038489Y-88492267D01*
X123038489Y-88580206D01*
X123040427Y-88630102D01*
X123059199Y-88740523D01*
X123096217Y-88841987D01*
X123149369Y-88933152D01*
X123216546Y-89012673D01*
X123295638Y-89079205D01*
X123384534Y-89131406D01*
X123481125Y-89167930D01*
X123583300Y-89187434D01*
X123688950Y-89188573D01*
X123795964Y-89170005D01*
X123902232Y-89130384D01*
X123999219Y-89072516D01*
X124084293Y-88997684D01*
X124153015Y-88909615D01*
X124203918Y-88810616D01*
X124235535Y-88702993D01*
X124246400Y-88589054D01*
X124246400Y-88492267D01*
X125866753Y-88492267D01*
X126077897Y-88492280D01*
X126282020Y-88492330D01*
X126465686Y-88492430D01*
X126629991Y-88492592D01*
X126776029Y-88492829D01*
X126904894Y-88493153D01*
X127017683Y-88493575D01*
X127115488Y-88494109D01*
X127199404Y-88494767D01*
X127270527Y-88495561D01*
X127329950Y-88496504D01*
X127378768Y-88497608D01*
X127418077Y-88498884D01*
X127448969Y-88500347D01*
X127472541Y-88502007D01*
X127489886Y-88503878D01*
X127502099Y-88505972D01*
X127510275Y-88508300D01*
X127515508Y-88510876D01*
X127521504Y-88514445D01*
X127528279Y-88517978D01*
X127534478Y-88521488D01*
X127540126Y-88525918D01*
X127545247Y-88532208D01*
X127549869Y-88541301D01*
X127554015Y-88554139D01*
X127557713Y-88571662D01*
X127560987Y-88594813D01*
X127563863Y-88624534D01*
X127566367Y-88661765D01*
X127568524Y-88707449D01*
X127570360Y-88762527D01*
X127571900Y-88827941D01*
X127573170Y-88904633D01*
X127574195Y-88993544D01*
X127575001Y-89095617D01*
X127575034Y-89101867D01*
X127575614Y-89211792D01*
G37*
D14*
%TO.C,J2*%
X127000000Y-87750000D02*
X125000000Y-87750000D01*
X127000000Y-85250000D02*
X127000000Y-87750000D01*
X127000000Y-80250000D02*
X127000000Y-82750000D01*
X125000000Y-80250000D02*
X127000000Y-80250000D01*
X105000000Y-87750000D02*
X105500000Y-87750000D01*
X105000000Y-80250000D02*
X105500000Y-80250000D01*
X105000000Y-80250000D02*
X102000000Y-80250000D01*
X102000000Y-87750000D02*
X105000000Y-87750000D01*
X102000000Y-80250000D02*
X102000000Y-87750000D01*
D12*
%TO.C,J1*%
X129950000Y-90650000D02*
X130950000Y-90650000D01*
X129950000Y-90650000D02*
X129950000Y-89650000D01*
X130240000Y-90360000D02*
X130240000Y-79640000D01*
X133660000Y-90360000D02*
X130240000Y-90360000D01*
X131500000Y-90050000D02*
X132300000Y-90050000D01*
X132300000Y-90050000D02*
X132300000Y-89850000D01*
X130750000Y-89850000D02*
X131500000Y-89850000D01*
X131500000Y-89850000D02*
X131500000Y-90050000D01*
X132300000Y-89850000D02*
X133150000Y-89850000D01*
X133150000Y-89850000D02*
X133150000Y-85000000D01*
X130750000Y-85000000D02*
X130750000Y-89850000D01*
X130750000Y-85000000D02*
X130750000Y-80150000D01*
X130750000Y-80150000D02*
X131500000Y-80150000D01*
X131500000Y-80150000D02*
X131500000Y-79950000D01*
X132300000Y-80150000D02*
X133150000Y-80150000D01*
X133150000Y-80150000D02*
X133150000Y-85000000D01*
X131500000Y-79950000D02*
X132300000Y-79950000D01*
X132300000Y-79950000D02*
X132300000Y-80150000D01*
X130240000Y-79640000D02*
X133660000Y-79640000D01*
X133660000Y-79640000D02*
X133660000Y-90360000D01*
D13*
%TO.C,REF\u002A\u002A*%
X105837275Y-88268931D02*
X105921095Y-88713555D01*
X106539667Y-88968551D01*
X106910707Y-88716246D01*
X106984144Y-88666506D01*
X107081499Y-88601218D01*
X107165787Y-88545454D01*
X107232631Y-88502078D01*
X107277654Y-88473953D01*
X107296478Y-88463942D01*
X107308039Y-88471061D01*
X107342596Y-88500894D01*
X107394894Y-88549852D01*
X107460500Y-88613440D01*
X107534983Y-88687163D01*
X107613913Y-88766525D01*
X107692856Y-88847031D01*
X107767384Y-88924185D01*
X107833063Y-88993493D01*
X107885463Y-89050457D01*
X107920153Y-89090584D01*
X107932701Y-89109377D01*
X107929782Y-89117451D01*
X107909571Y-89153469D01*
X107872663Y-89212744D01*
X107822050Y-89290630D01*
X107760725Y-89382481D01*
X107691679Y-89483650D01*
X107653787Y-89538826D01*
X107588606Y-89634884D01*
X107532723Y-89718717D01*
X107489117Y-89785777D01*
X107460769Y-89831519D01*
X107450657Y-89851396D01*
X107450823Y-89852497D01*
X107459743Y-89877694D01*
X107480206Y-89929147D01*
X107509360Y-90000135D01*
X107544353Y-90083935D01*
X107582332Y-90173828D01*
X107620445Y-90263091D01*
X107655839Y-90345003D01*
X107685662Y-90412843D01*
X107707061Y-90459890D01*
X107717184Y-90479422D01*
X107723174Y-90481155D01*
X107759566Y-90488969D01*
X107824427Y-90501915D01*
X107912565Y-90518979D01*
X108018787Y-90539151D01*
X108137902Y-90561418D01*
X108200683Y-90573223D01*
X108315912Y-90595748D01*
X108416662Y-90616550D01*
X108497426Y-90634435D01*
X108552698Y-90648208D01*
X108576971Y-90656674D01*
X108581331Y-90665066D01*
X108588563Y-90706072D01*
X108594246Y-90774368D01*
X108598382Y-90863529D01*
X108600977Y-90967128D01*
X108602036Y-91078740D01*
X108601561Y-91191938D01*
X108599559Y-91300296D01*
X108596033Y-91397389D01*
X108590987Y-91476790D01*
X108584427Y-91532072D01*
X108576356Y-91556810D01*
X108571458Y-91559600D01*
X108534930Y-91571569D01*
X108471565Y-91587405D01*
X108388686Y-91605374D01*
X108293618Y-91623741D01*
X108261542Y-91629591D01*
X108113393Y-91656798D01*
X107996961Y-91678663D01*
X107908209Y-91696093D01*
X107843103Y-91709996D01*
X107797606Y-91721277D01*
X107767682Y-91730843D01*
X107749294Y-91739601D01*
X107738407Y-91748457D01*
X107737142Y-91749943D01*
X107719338Y-91780931D01*
X107692994Y-91837634D01*
X107660661Y-91913399D01*
X107624893Y-92001574D01*
X107588244Y-92095507D01*
X107553266Y-92188547D01*
X107522513Y-92274041D01*
X107498538Y-92345336D01*
X107483895Y-92395782D01*
X107481136Y-92418726D01*
X107482981Y-92421703D01*
X107502075Y-92450493D01*
X107537984Y-92503595D01*
X107587378Y-92576117D01*
X107646927Y-92663167D01*
X107713303Y-92759854D01*
X107731520Y-92786456D01*
X107795577Y-92881875D01*
X107850937Y-92967212D01*
X107894439Y-93037405D01*
X107922924Y-93087394D01*
X107933232Y-93112116D01*
X107931011Y-93118616D01*
X107907858Y-93150644D01*
X107862177Y-93202945D01*
X107797241Y-93271999D01*
X107716319Y-93354286D01*
X107622685Y-93446286D01*
X107569165Y-93497781D01*
X107484542Y-93577983D01*
X107410475Y-93646678D01*
X107350941Y-93700252D01*
X107309917Y-93735085D01*
X107291381Y-93747563D01*
X107278646Y-93742938D01*
X107239436Y-93721057D01*
X107182495Y-93685273D01*
X107115250Y-93640117D01*
X107067438Y-93607165D01*
X106971985Y-93541727D01*
X106870125Y-93472228D01*
X106777088Y-93409075D01*
X106594832Y-93285800D01*
X106441841Y-93368520D01*
X106405817Y-93387613D01*
X106340303Y-93420272D01*
X106289640Y-93442819D01*
X106262564Y-93451226D01*
X106253703Y-93440430D01*
X106231699Y-93399323D01*
X106199199Y-93331549D01*
X106158010Y-93241409D01*
X106109942Y-93133205D01*
X106056802Y-93011237D01*
X106000399Y-92879808D01*
X105942542Y-92743218D01*
X105885038Y-92605767D01*
X105829697Y-92471758D01*
X105778326Y-92345491D01*
X105732735Y-92231268D01*
X105694732Y-92133390D01*
X105666124Y-92056157D01*
X105648721Y-92003871D01*
X105644331Y-91980833D01*
X105644628Y-91980160D01*
X105665077Y-91958863D01*
X105707850Y-91925508D01*
X105764117Y-91887011D01*
X105781877Y-91875256D01*
X105917014Y-91763735D01*
X106028856Y-91630906D01*
X106114755Y-91482298D01*
X106172062Y-91323440D01*
X106198131Y-91159860D01*
X106190313Y-90997088D01*
X106158644Y-90852315D01*
X106101782Y-90706124D01*
X106018888Y-90575703D01*
X105905131Y-90451813D01*
X105860433Y-90412235D01*
X105715935Y-90314723D01*
X105559838Y-90249050D01*
X105396667Y-90214630D01*
X105230943Y-90210874D01*
X105067192Y-90237194D01*
X104909936Y-90293003D01*
X104763698Y-90377714D01*
X104633004Y-90490737D01*
X104522374Y-90631487D01*
X104501105Y-90666342D01*
X104428810Y-90825655D01*
X104390415Y-90991552D01*
X104384914Y-91159737D01*
X104411301Y-91325913D01*
X104468570Y-91485784D01*
X104555717Y-91635053D01*
X104671736Y-91769423D01*
X104815622Y-91884599D01*
X104820294Y-91887702D01*
X104875964Y-91926933D01*
X104917689Y-91960286D01*
X104936746Y-91980833D01*
X104934342Y-91996941D01*
X104919391Y-92043844D01*
X104892881Y-92116539D01*
X104856620Y-92210725D01*
X104812416Y-92322098D01*
X104762076Y-92446358D01*
X104707407Y-92579202D01*
X104650218Y-92716327D01*
X104592316Y-92853432D01*
X104535510Y-92986215D01*
X104481606Y-93110374D01*
X104432412Y-93221606D01*
X104389737Y-93315609D01*
X104355387Y-93388082D01*
X104331171Y-93434722D01*
X104318897Y-93451226D01*
X104308689Y-93448991D01*
X104268586Y-93432926D01*
X104209318Y-93404759D01*
X104139619Y-93368520D01*
X103986629Y-93285800D01*
X103804373Y-93409075D01*
X103750527Y-93445579D01*
X103650374Y-93513784D01*
X103550525Y-93582098D01*
X103466211Y-93640117D01*
X103419679Y-93671736D01*
X103359200Y-93711020D01*
X103314357Y-93737912D01*
X103292455Y-93747883D01*
X103283045Y-93743650D01*
X103249031Y-93717721D01*
X103196595Y-93672070D01*
X103130301Y-93611186D01*
X103054713Y-93539561D01*
X102974396Y-93461683D01*
X102893913Y-93382045D01*
X102817829Y-93305135D01*
X102750707Y-93235445D01*
X102697112Y-93177464D01*
X102661608Y-93135684D01*
X102648759Y-93114593D01*
X102649500Y-93110581D01*
X102664793Y-93077920D01*
X102697462Y-93021412D01*
X102744350Y-92946163D01*
X102802301Y-92857275D01*
X102868157Y-92759854D01*
X102886627Y-92732982D01*
X102951482Y-92638423D01*
X103008609Y-92554827D01*
X103054678Y-92487084D01*
X103086359Y-92440086D01*
X103100324Y-92418726D01*
X103100668Y-92417811D01*
X103096546Y-92391678D01*
X103080807Y-92338740D01*
X103056004Y-92265647D01*
X103024689Y-92179052D01*
X102989417Y-92085608D01*
X102952740Y-91991965D01*
X102917212Y-91904777D01*
X102885386Y-91830695D01*
X102859816Y-91776371D01*
X102843053Y-91748457D01*
X102841374Y-91746724D01*
X102829372Y-91737956D01*
X102809103Y-91729115D01*
X102776529Y-91719292D01*
X102727616Y-91707583D01*
X102658327Y-91693080D01*
X102564625Y-91674876D01*
X102442476Y-91652066D01*
X102287842Y-91623741D01*
X102255770Y-91617780D01*
X102163893Y-91599352D01*
X102086607Y-91581892D01*
X102031236Y-91567133D01*
X102005105Y-91556810D01*
X102000733Y-91548197D01*
X101993445Y-91506826D01*
X101987669Y-91438241D01*
X101983410Y-91348868D01*
X101980673Y-91245135D01*
X101979462Y-91133465D01*
X101979782Y-91020287D01*
X101981636Y-90912026D01*
X101985030Y-90815108D01*
X101989967Y-90735959D01*
X101996452Y-90681006D01*
X102004489Y-90656674D01*
X102012696Y-90653079D01*
X102053519Y-90641748D01*
X102122524Y-90625722D01*
X102214203Y-90606195D01*
X102323050Y-90584362D01*
X102443558Y-90561418D01*
X102509357Y-90549159D01*
X102622135Y-90527901D01*
X102719207Y-90509287D01*
X102795382Y-90494328D01*
X102845469Y-90484036D01*
X102864276Y-90479422D01*
X102864983Y-90478471D01*
X102876961Y-90454310D01*
X102899794Y-90403694D01*
X102930630Y-90333338D01*
X102966613Y-90249958D01*
X103004891Y-90160270D01*
X103042609Y-90070989D01*
X103076913Y-89988832D01*
X103104949Y-89920513D01*
X103123864Y-89872748D01*
X103130803Y-89852254D01*
X103127742Y-89845043D01*
X103107372Y-89810728D01*
X103070422Y-89752970D01*
X103019860Y-89676299D01*
X102958657Y-89585248D01*
X102889781Y-89484350D01*
X102851994Y-89429093D01*
X102786782Y-89332215D01*
X102730871Y-89247193D01*
X102687241Y-89178662D01*
X102658877Y-89131260D01*
X102648759Y-89109623D01*
X102655790Y-89097887D01*
X102685197Y-89062818D01*
X102733441Y-89009745D01*
X102796093Y-88943164D01*
X102868725Y-88867574D01*
X102946908Y-88787472D01*
X103026214Y-88707354D01*
X103102213Y-88631718D01*
X103170478Y-88565062D01*
X103226580Y-88511882D01*
X103266090Y-88476676D01*
X103284579Y-88463942D01*
X103294843Y-88468893D01*
X103332530Y-88491857D01*
X103393348Y-88530938D01*
X103472913Y-88583272D01*
X103566843Y-88645996D01*
X103670754Y-88716246D01*
X104041794Y-88968551D01*
X104351080Y-88841053D01*
X104660365Y-88713555D01*
X104744186Y-88268931D01*
X104828006Y-87824307D01*
X105753454Y-87824307D01*
X105837275Y-88268931D01*
G36*
X105837275Y-88268931D02*
G01*
X105921095Y-88713555D01*
X106539667Y-88968551D01*
X106910707Y-88716246D01*
X106984144Y-88666506D01*
X107081499Y-88601218D01*
X107165787Y-88545454D01*
X107232631Y-88502078D01*
X107277654Y-88473953D01*
X107296478Y-88463942D01*
X107308039Y-88471061D01*
X107342596Y-88500894D01*
X107394894Y-88549852D01*
X107460500Y-88613440D01*
X107534983Y-88687163D01*
X107613913Y-88766525D01*
X107692856Y-88847031D01*
X107767384Y-88924185D01*
X107833063Y-88993493D01*
X107885463Y-89050457D01*
X107920153Y-89090584D01*
X107932701Y-89109377D01*
X107929782Y-89117451D01*
X107909571Y-89153469D01*
X107872663Y-89212744D01*
X107822050Y-89290630D01*
X107760725Y-89382481D01*
X107691679Y-89483650D01*
X107653787Y-89538826D01*
X107588606Y-89634884D01*
X107532723Y-89718717D01*
X107489117Y-89785777D01*
X107460769Y-89831519D01*
X107450657Y-89851396D01*
X107450823Y-89852497D01*
X107459743Y-89877694D01*
X107480206Y-89929147D01*
X107509360Y-90000135D01*
X107544353Y-90083935D01*
X107582332Y-90173828D01*
X107620445Y-90263091D01*
X107655839Y-90345003D01*
X107685662Y-90412843D01*
X107707061Y-90459890D01*
X107717184Y-90479422D01*
X107723174Y-90481155D01*
X107759566Y-90488969D01*
X107824427Y-90501915D01*
X107912565Y-90518979D01*
X108018787Y-90539151D01*
X108137902Y-90561418D01*
X108200683Y-90573223D01*
X108315912Y-90595748D01*
X108416662Y-90616550D01*
X108497426Y-90634435D01*
X108552698Y-90648208D01*
X108576971Y-90656674D01*
X108581331Y-90665066D01*
X108588563Y-90706072D01*
X108594246Y-90774368D01*
X108598382Y-90863529D01*
X108600977Y-90967128D01*
X108602036Y-91078740D01*
X108601561Y-91191938D01*
X108599559Y-91300296D01*
X108596033Y-91397389D01*
X108590987Y-91476790D01*
X108584427Y-91532072D01*
X108576356Y-91556810D01*
X108571458Y-91559600D01*
X108534930Y-91571569D01*
X108471565Y-91587405D01*
X108388686Y-91605374D01*
X108293618Y-91623741D01*
X108261542Y-91629591D01*
X108113393Y-91656798D01*
X107996961Y-91678663D01*
X107908209Y-91696093D01*
X107843103Y-91709996D01*
X107797606Y-91721277D01*
X107767682Y-91730843D01*
X107749294Y-91739601D01*
X107738407Y-91748457D01*
X107737142Y-91749943D01*
X107719338Y-91780931D01*
X107692994Y-91837634D01*
X107660661Y-91913399D01*
X107624893Y-92001574D01*
X107588244Y-92095507D01*
X107553266Y-92188547D01*
X107522513Y-92274041D01*
X107498538Y-92345336D01*
X107483895Y-92395782D01*
X107481136Y-92418726D01*
X107482981Y-92421703D01*
X107502075Y-92450493D01*
X107537984Y-92503595D01*
X107587378Y-92576117D01*
X107646927Y-92663167D01*
X107713303Y-92759854D01*
X107731520Y-92786456D01*
X107795577Y-92881875D01*
X107850937Y-92967212D01*
X107894439Y-93037405D01*
X107922924Y-93087394D01*
X107933232Y-93112116D01*
X107931011Y-93118616D01*
X107907858Y-93150644D01*
X107862177Y-93202945D01*
X107797241Y-93271999D01*
X107716319Y-93354286D01*
X107622685Y-93446286D01*
X107569165Y-93497781D01*
X107484542Y-93577983D01*
X107410475Y-93646678D01*
X107350941Y-93700252D01*
X107309917Y-93735085D01*
X107291381Y-93747563D01*
X107278646Y-93742938D01*
X107239436Y-93721057D01*
X107182495Y-93685273D01*
X107115250Y-93640117D01*
X107067438Y-93607165D01*
X106971985Y-93541727D01*
X106870125Y-93472228D01*
X106777088Y-93409075D01*
X106594832Y-93285800D01*
X106441841Y-93368520D01*
X106405817Y-93387613D01*
X106340303Y-93420272D01*
X106289640Y-93442819D01*
X106262564Y-93451226D01*
X106253703Y-93440430D01*
X106231699Y-93399323D01*
X106199199Y-93331549D01*
X106158010Y-93241409D01*
X106109942Y-93133205D01*
X106056802Y-93011237D01*
X106000399Y-92879808D01*
X105942542Y-92743218D01*
X105885038Y-92605767D01*
X105829697Y-92471758D01*
X105778326Y-92345491D01*
X105732735Y-92231268D01*
X105694732Y-92133390D01*
X105666124Y-92056157D01*
X105648721Y-92003871D01*
X105644331Y-91980833D01*
X105644628Y-91980160D01*
X105665077Y-91958863D01*
X105707850Y-91925508D01*
X105764117Y-91887011D01*
X105781877Y-91875256D01*
X105917014Y-91763735D01*
X106028856Y-91630906D01*
X106114755Y-91482298D01*
X106172062Y-91323440D01*
X106198131Y-91159860D01*
X106190313Y-90997088D01*
X106158644Y-90852315D01*
X106101782Y-90706124D01*
X106018888Y-90575703D01*
X105905131Y-90451813D01*
X105860433Y-90412235D01*
X105715935Y-90314723D01*
X105559838Y-90249050D01*
X105396667Y-90214630D01*
X105230943Y-90210874D01*
X105067192Y-90237194D01*
X104909936Y-90293003D01*
X104763698Y-90377714D01*
X104633004Y-90490737D01*
X104522374Y-90631487D01*
X104501105Y-90666342D01*
X104428810Y-90825655D01*
X104390415Y-90991552D01*
X104384914Y-91159737D01*
X104411301Y-91325913D01*
X104468570Y-91485784D01*
X104555717Y-91635053D01*
X104671736Y-91769423D01*
X104815622Y-91884599D01*
X104820294Y-91887702D01*
X104875964Y-91926933D01*
X104917689Y-91960286D01*
X104936746Y-91980833D01*
X104934342Y-91996941D01*
X104919391Y-92043844D01*
X104892881Y-92116539D01*
X104856620Y-92210725D01*
X104812416Y-92322098D01*
X104762076Y-92446358D01*
X104707407Y-92579202D01*
X104650218Y-92716327D01*
X104592316Y-92853432D01*
X104535510Y-92986215D01*
X104481606Y-93110374D01*
X104432412Y-93221606D01*
X104389737Y-93315609D01*
X104355387Y-93388082D01*
X104331171Y-93434722D01*
X104318897Y-93451226D01*
X104308689Y-93448991D01*
X104268586Y-93432926D01*
X104209318Y-93404759D01*
X104139619Y-93368520D01*
X103986629Y-93285800D01*
X103804373Y-93409075D01*
X103750527Y-93445579D01*
X103650374Y-93513784D01*
X103550525Y-93582098D01*
X103466211Y-93640117D01*
X103419679Y-93671736D01*
X103359200Y-93711020D01*
X103314357Y-93737912D01*
X103292455Y-93747883D01*
X103283045Y-93743650D01*
X103249031Y-93717721D01*
X103196595Y-93672070D01*
X103130301Y-93611186D01*
X103054713Y-93539561D01*
X102974396Y-93461683D01*
X102893913Y-93382045D01*
X102817829Y-93305135D01*
X102750707Y-93235445D01*
X102697112Y-93177464D01*
X102661608Y-93135684D01*
X102648759Y-93114593D01*
X102649500Y-93110581D01*
X102664793Y-93077920D01*
X102697462Y-93021412D01*
X102744350Y-92946163D01*
X102802301Y-92857275D01*
X102868157Y-92759854D01*
X102886627Y-92732982D01*
X102951482Y-92638423D01*
X103008609Y-92554827D01*
X103054678Y-92487084D01*
X103086359Y-92440086D01*
X103100324Y-92418726D01*
X103100668Y-92417811D01*
X103096546Y-92391678D01*
X103080807Y-92338740D01*
X103056004Y-92265647D01*
X103024689Y-92179052D01*
X102989417Y-92085608D01*
X102952740Y-91991965D01*
X102917212Y-91904777D01*
X102885386Y-91830695D01*
X102859816Y-91776371D01*
X102843053Y-91748457D01*
X102841374Y-91746724D01*
X102829372Y-91737956D01*
X102809103Y-91729115D01*
X102776529Y-91719292D01*
X102727616Y-91707583D01*
X102658327Y-91693080D01*
X102564625Y-91674876D01*
X102442476Y-91652066D01*
X102287842Y-91623741D01*
X102255770Y-91617780D01*
X102163893Y-91599352D01*
X102086607Y-91581892D01*
X102031236Y-91567133D01*
X102005105Y-91556810D01*
X102000733Y-91548197D01*
X101993445Y-91506826D01*
X101987669Y-91438241D01*
X101983410Y-91348868D01*
X101980673Y-91245135D01*
X101979462Y-91133465D01*
X101979782Y-91020287D01*
X101981636Y-90912026D01*
X101985030Y-90815108D01*
X101989967Y-90735959D01*
X101996452Y-90681006D01*
X102004489Y-90656674D01*
X102012696Y-90653079D01*
X102053519Y-90641748D01*
X102122524Y-90625722D01*
X102214203Y-90606195D01*
X102323050Y-90584362D01*
X102443558Y-90561418D01*
X102509357Y-90549159D01*
X102622135Y-90527901D01*
X102719207Y-90509287D01*
X102795382Y-90494328D01*
X102845469Y-90484036D01*
X102864276Y-90479422D01*
X102864983Y-90478471D01*
X102876961Y-90454310D01*
X102899794Y-90403694D01*
X102930630Y-90333338D01*
X102966613Y-90249958D01*
X103004891Y-90160270D01*
X103042609Y-90070989D01*
X103076913Y-89988832D01*
X103104949Y-89920513D01*
X103123864Y-89872748D01*
X103130803Y-89852254D01*
X103127742Y-89845043D01*
X103107372Y-89810728D01*
X103070422Y-89752970D01*
X103019860Y-89676299D01*
X102958657Y-89585248D01*
X102889781Y-89484350D01*
X102851994Y-89429093D01*
X102786782Y-89332215D01*
X102730871Y-89247193D01*
X102687241Y-89178662D01*
X102658877Y-89131260D01*
X102648759Y-89109623D01*
X102655790Y-89097887D01*
X102685197Y-89062818D01*
X102733441Y-89009745D01*
X102796093Y-88943164D01*
X102868725Y-88867574D01*
X102946908Y-88787472D01*
X103026214Y-88707354D01*
X103102213Y-88631718D01*
X103170478Y-88565062D01*
X103226580Y-88511882D01*
X103266090Y-88476676D01*
X103284579Y-88463942D01*
X103294843Y-88468893D01*
X103332530Y-88491857D01*
X103393348Y-88530938D01*
X103472913Y-88583272D01*
X103566843Y-88645996D01*
X103670754Y-88716246D01*
X104041794Y-88968551D01*
X104351080Y-88841053D01*
X104660365Y-88713555D01*
X104744186Y-88268931D01*
X104828006Y-87824307D01*
X105753454Y-87824307D01*
X105837275Y-88268931D01*
G37*
%TD*%
M02*
