%TF.GenerationSoftware,KiCad,Pcbnew,8.0.3*%
%TF.CreationDate,2024-06-23T17:04:57+02:00*%
%TF.ProjectId,Interface,496e7465-7266-4616-9365-2e6b69636164,rev?*%
%TF.SameCoordinates,Original*%
%TF.FileFunction,Soldermask,Top*%
%TF.FilePolarity,Negative*%
%FSLAX46Y46*%
G04 Gerber Fmt 4.6, Leading zero omitted, Abs format (unit mm)*
G04 Created by KiCad (PCBNEW 8.0.3) date 2024-06-23 17:04:57*
%MOMM*%
%LPD*%
G01*
G04 APERTURE LIST*
G04 Aperture macros list*
%AMRoundRect*
0 Rectangle with rounded corners*
0 $1 Rounding radius*
0 $2 $3 $4 $5 $6 $7 $8 $9 X,Y pos of 4 corners*
0 Add a 4 corners polygon primitive as box body*
4,1,4,$2,$3,$4,$5,$6,$7,$8,$9,$2,$3,0*
0 Add four circle primitives for the rounded corners*
1,1,$1+$1,$2,$3*
1,1,$1+$1,$4,$5*
1,1,$1+$1,$6,$7*
1,1,$1+$1,$8,$9*
0 Add four rect primitives between the rounded corners*
20,1,$1+$1,$2,$3,$4,$5,0*
20,1,$1+$1,$4,$5,$6,$7,0*
20,1,$1+$1,$6,$7,$8,$9,0*
20,1,$1+$1,$8,$9,$2,$3,0*%
G04 Aperture macros list end*
%ADD10C,2.750000*%
%ADD11RoundRect,0.237500X-0.237500X0.300000X-0.237500X-0.300000X0.237500X-0.300000X0.237500X0.300000X0*%
%ADD12C,2.500000*%
%ADD13RoundRect,0.237500X0.250000X0.237500X-0.250000X0.237500X-0.250000X-0.237500X0.250000X-0.237500X0*%
%ADD14R,2.000000X1.500000*%
%ADD15R,2.000000X3.800000*%
%ADD16RoundRect,0.237500X0.300000X0.237500X-0.300000X0.237500X-0.300000X-0.237500X0.300000X-0.237500X0*%
%ADD17RoundRect,0.237500X0.237500X-0.250000X0.237500X0.250000X-0.237500X0.250000X-0.237500X-0.250000X0*%
%ADD18RoundRect,0.237500X0.237500X-0.300000X0.237500X0.300000X-0.237500X0.300000X-0.237500X-0.300000X0*%
%ADD19R,1.725000X2.100000*%
%ADD20RoundRect,0.237500X-0.237500X0.250000X-0.237500X-0.250000X0.237500X-0.250000X0.237500X0.250000X0*%
%ADD21RoundRect,0.160000X-0.197500X-0.160000X0.197500X-0.160000X0.197500X0.160000X-0.197500X0.160000X0*%
%ADD22RoundRect,0.160000X-0.160000X0.197500X-0.160000X-0.197500X0.160000X-0.197500X0.160000X0.197500X0*%
%ADD23RoundRect,0.062500X-0.350000X-0.062500X0.350000X-0.062500X0.350000X0.062500X-0.350000X0.062500X0*%
%ADD24RoundRect,0.062500X-0.062500X-0.350000X0.062500X-0.350000X0.062500X0.350000X-0.062500X0.350000X0*%
%ADD25R,2.600000X2.600000*%
%ADD26RoundRect,0.237500X-0.300000X-0.237500X0.300000X-0.237500X0.300000X0.237500X-0.300000X0.237500X0*%
%ADD27C,3.200000*%
%ADD28C,2.350000*%
%ADD29R,1.200000X1.200000*%
%ADD30C,1.200000*%
%ADD31RoundRect,0.200000X0.450000X-0.200000X0.450000X0.200000X-0.450000X0.200000X-0.450000X-0.200000X0*%
%ADD32O,1.300000X0.800000*%
G04 APERTURE END LIST*
D10*
X103875000Y-77500000D02*
G75*
G02*
X101125000Y-77500000I-1375000J0D01*
G01*
X101125000Y-77500000D02*
G75*
G02*
X103875000Y-77500000I1375000J0D01*
G01*
D11*
%TO.C,C15*%
X112125000Y-76112499D03*
X112125000Y-77837501D03*
%TD*%
%TO.C,C14*%
X114635000Y-76112499D03*
X114635000Y-77837501D03*
%TD*%
%TO.C,C13*%
X117145000Y-76112499D03*
X117145000Y-77837501D03*
%TD*%
D12*
%TO.C,TP2*%
X133875000Y-77175000D03*
%TD*%
%TO.C,TP1*%
X131000000Y-77200000D03*
%TD*%
D13*
%TO.C,R1*%
X105662500Y-98000000D03*
X103837500Y-98000000D03*
%TD*%
D14*
%TO.C,U1*%
X132400000Y-97050000D03*
X132400000Y-94750000D03*
D15*
X126100000Y-94750000D03*
D14*
X132400000Y-92450000D03*
%TD*%
D16*
%TO.C,C2*%
X113112500Y-98000000D03*
X111387500Y-98000000D03*
%TD*%
D17*
%TO.C,R2*%
X101500000Y-94912500D03*
X101500000Y-93087500D03*
%TD*%
D18*
%TO.C,C7*%
X103000000Y-91112500D03*
X103000000Y-89387500D03*
%TD*%
D19*
%TO.C,Y1*%
X106912500Y-92550000D03*
X106912500Y-95450000D03*
X109087500Y-95450000D03*
X109087500Y-92550000D03*
%TD*%
D20*
%TO.C,R3*%
X104500000Y-93087500D03*
X104500000Y-94912500D03*
%TD*%
D18*
%TO.C,C9*%
X119500000Y-91462500D03*
X119500000Y-89737500D03*
%TD*%
D11*
%TO.C,C11*%
X103000000Y-93137500D03*
X103000000Y-94862500D03*
%TD*%
D21*
%TO.C,R5*%
X125402500Y-90875000D03*
X126597500Y-90875000D03*
%TD*%
D11*
%TO.C,C6*%
X120750000Y-96387500D03*
X120750000Y-98112500D03*
%TD*%
D22*
%TO.C,R6*%
X128425000Y-79502500D03*
X128425000Y-80697500D03*
%TD*%
D11*
%TO.C,C5*%
X122500000Y-96387500D03*
X122500000Y-98112500D03*
%TD*%
D22*
%TO.C,R7*%
X129225000Y-79502500D03*
X129225000Y-80697500D03*
%TD*%
D23*
%TO.C,IC1*%
X114062500Y-92750000D03*
X114062500Y-93250000D03*
X114062500Y-93750000D03*
X114062500Y-94250000D03*
X114062500Y-94750000D03*
X114062500Y-95250000D03*
D24*
X114750000Y-95937500D03*
X115250000Y-95937500D03*
X115750000Y-95937500D03*
X116250000Y-95937500D03*
X116750000Y-95937500D03*
X117250000Y-95937500D03*
D23*
X117937500Y-95250000D03*
X117937500Y-94750000D03*
X117937500Y-94250000D03*
X117937500Y-93750000D03*
X117937500Y-93250000D03*
X117937500Y-92750000D03*
D24*
X117250000Y-92062500D03*
X116750000Y-92062500D03*
X116250000Y-92062500D03*
X115750000Y-92062500D03*
X115250000Y-92062500D03*
X114750000Y-92062500D03*
D25*
X116000000Y-94000000D03*
%TD*%
D11*
%TO.C,C12*%
X111500000Y-94137500D03*
X111500000Y-95862500D03*
%TD*%
%TO.C,C10*%
X134750000Y-93887500D03*
X134750000Y-95612500D03*
%TD*%
D21*
%TO.C,R4*%
X125402500Y-90075000D03*
X126597500Y-90075000D03*
%TD*%
D16*
%TO.C,C1*%
X109362500Y-98000000D03*
X107637500Y-98000000D03*
%TD*%
D26*
%TO.C,C3*%
X115137500Y-98000000D03*
X116862500Y-98000000D03*
%TD*%
D11*
%TO.C,C4*%
X124000000Y-96387500D03*
X124000000Y-98112500D03*
%TD*%
D18*
%TO.C,C8*%
X104500000Y-91112500D03*
X104500000Y-89387500D03*
%TD*%
D27*
%TO.C,H1*%
X102500000Y-77500000D03*
%TD*%
D28*
%TO.C,J2*%
X126150000Y-84000000D03*
X117000000Y-84000000D03*
D29*
X105350000Y-85250000D03*
D30*
X106350000Y-87250000D03*
X107350000Y-85250000D03*
X108350000Y-87250000D03*
X109350000Y-85250000D03*
X110350000Y-87250000D03*
X111350000Y-85250000D03*
X112350000Y-87250000D03*
X113350000Y-85250000D03*
X114350000Y-87250000D03*
X115350000Y-85250000D03*
X118350000Y-87250000D03*
X119350000Y-85250000D03*
X120350000Y-87250000D03*
X121350000Y-85250000D03*
X122350000Y-87250000D03*
X123350000Y-85250000D03*
X124350000Y-87250000D03*
X105350000Y-82750000D03*
X106350000Y-80750000D03*
X107350000Y-82750000D03*
X108350000Y-80750000D03*
X109350000Y-82750000D03*
X110350000Y-80750000D03*
X111350000Y-82750000D03*
X112350000Y-80750000D03*
X113350000Y-82750000D03*
X114350000Y-80750000D03*
X115350000Y-82750000D03*
X118350000Y-80750000D03*
X119350000Y-82750000D03*
X120350000Y-80750000D03*
X121350000Y-82750000D03*
X122350000Y-80750000D03*
X123350000Y-82750000D03*
X124350000Y-80750000D03*
%TD*%
D31*
%TO.C,J1*%
X131500000Y-88750000D03*
D32*
X131500000Y-87500000D03*
X131500000Y-86250000D03*
X131500000Y-85000000D03*
X131500000Y-83750000D03*
X131500000Y-82500000D03*
X131500000Y-81250000D03*
%TD*%
M02*
