%TF.GenerationSoftware,KiCad,Pcbnew,8.0.3*%
%TF.CreationDate,2024-06-23T17:04:57+02:00*%
%TF.ProjectId,Interface,496e7465-7266-4616-9365-2e6b69636164,rev?*%
%TF.SameCoordinates,Original*%
%TF.FileFunction,Legend,Top*%
%TF.FilePolarity,Positive*%
%FSLAX46Y46*%
G04 Gerber Fmt 4.6, Leading zero omitted, Abs format (unit mm)*
G04 Created by KiCad (PCBNEW 8.0.3) date 2024-06-23 17:04:57*
%MOMM*%
%LPD*%
G01*
G04 APERTURE LIST*
%ADD10C,0.150000*%
%ADD11C,0.120000*%
G04 APERTURE END LIST*
D10*
X108214580Y-77617857D02*
X108262200Y-77665476D01*
X108262200Y-77665476D02*
X108309819Y-77808333D01*
X108309819Y-77808333D02*
X108309819Y-77903571D01*
X108309819Y-77903571D02*
X108262200Y-78046428D01*
X108262200Y-78046428D02*
X108166961Y-78141666D01*
X108166961Y-78141666D02*
X108071723Y-78189285D01*
X108071723Y-78189285D02*
X107881247Y-78236904D01*
X107881247Y-78236904D02*
X107738390Y-78236904D01*
X107738390Y-78236904D02*
X107547914Y-78189285D01*
X107547914Y-78189285D02*
X107452676Y-78141666D01*
X107452676Y-78141666D02*
X107357438Y-78046428D01*
X107357438Y-78046428D02*
X107309819Y-77903571D01*
X107309819Y-77903571D02*
X107309819Y-77808333D01*
X107309819Y-77808333D02*
X107357438Y-77665476D01*
X107357438Y-77665476D02*
X107405057Y-77617857D01*
X108309819Y-76665476D02*
X108309819Y-77236904D01*
X108309819Y-76951190D02*
X107309819Y-76951190D01*
X107309819Y-76951190D02*
X107452676Y-77046428D01*
X107452676Y-77046428D02*
X107547914Y-77141666D01*
X107547914Y-77141666D02*
X107595533Y-77236904D01*
X107309819Y-75760714D02*
X107309819Y-76236904D01*
X107309819Y-76236904D02*
X107786009Y-76284523D01*
X107786009Y-76284523D02*
X107738390Y-76236904D01*
X107738390Y-76236904D02*
X107690771Y-76141666D01*
X107690771Y-76141666D02*
X107690771Y-75903571D01*
X107690771Y-75903571D02*
X107738390Y-75808333D01*
X107738390Y-75808333D02*
X107786009Y-75760714D01*
X107786009Y-75760714D02*
X107881247Y-75713095D01*
X107881247Y-75713095D02*
X108119342Y-75713095D01*
X108119342Y-75713095D02*
X108214580Y-75760714D01*
X108214580Y-75760714D02*
X108262200Y-75808333D01*
X108262200Y-75808333D02*
X108309819Y-75903571D01*
X108309819Y-75903571D02*
X108309819Y-76141666D01*
X108309819Y-76141666D02*
X108262200Y-76236904D01*
X108262200Y-76236904D02*
X108214580Y-76284523D01*
X109624580Y-77617857D02*
X109672200Y-77665476D01*
X109672200Y-77665476D02*
X109719819Y-77808333D01*
X109719819Y-77808333D02*
X109719819Y-77903571D01*
X109719819Y-77903571D02*
X109672200Y-78046428D01*
X109672200Y-78046428D02*
X109576961Y-78141666D01*
X109576961Y-78141666D02*
X109481723Y-78189285D01*
X109481723Y-78189285D02*
X109291247Y-78236904D01*
X109291247Y-78236904D02*
X109148390Y-78236904D01*
X109148390Y-78236904D02*
X108957914Y-78189285D01*
X108957914Y-78189285D02*
X108862676Y-78141666D01*
X108862676Y-78141666D02*
X108767438Y-78046428D01*
X108767438Y-78046428D02*
X108719819Y-77903571D01*
X108719819Y-77903571D02*
X108719819Y-77808333D01*
X108719819Y-77808333D02*
X108767438Y-77665476D01*
X108767438Y-77665476D02*
X108815057Y-77617857D01*
X109719819Y-76665476D02*
X109719819Y-77236904D01*
X109719819Y-76951190D02*
X108719819Y-76951190D01*
X108719819Y-76951190D02*
X108862676Y-77046428D01*
X108862676Y-77046428D02*
X108957914Y-77141666D01*
X108957914Y-77141666D02*
X109005533Y-77236904D01*
X109053152Y-75808333D02*
X109719819Y-75808333D01*
X108672200Y-76046428D02*
X109386485Y-76284523D01*
X109386485Y-76284523D02*
X109386485Y-75665476D01*
X111034580Y-77617857D02*
X111082200Y-77665476D01*
X111082200Y-77665476D02*
X111129819Y-77808333D01*
X111129819Y-77808333D02*
X111129819Y-77903571D01*
X111129819Y-77903571D02*
X111082200Y-78046428D01*
X111082200Y-78046428D02*
X110986961Y-78141666D01*
X110986961Y-78141666D02*
X110891723Y-78189285D01*
X110891723Y-78189285D02*
X110701247Y-78236904D01*
X110701247Y-78236904D02*
X110558390Y-78236904D01*
X110558390Y-78236904D02*
X110367914Y-78189285D01*
X110367914Y-78189285D02*
X110272676Y-78141666D01*
X110272676Y-78141666D02*
X110177438Y-78046428D01*
X110177438Y-78046428D02*
X110129819Y-77903571D01*
X110129819Y-77903571D02*
X110129819Y-77808333D01*
X110129819Y-77808333D02*
X110177438Y-77665476D01*
X110177438Y-77665476D02*
X110225057Y-77617857D01*
X111129819Y-76665476D02*
X111129819Y-77236904D01*
X111129819Y-76951190D02*
X110129819Y-76951190D01*
X110129819Y-76951190D02*
X110272676Y-77046428D01*
X110272676Y-77046428D02*
X110367914Y-77141666D01*
X110367914Y-77141666D02*
X110415533Y-77236904D01*
X110129819Y-76332142D02*
X110129819Y-75713095D01*
X110129819Y-75713095D02*
X110510771Y-76046428D01*
X110510771Y-76046428D02*
X110510771Y-75903571D01*
X110510771Y-75903571D02*
X110558390Y-75808333D01*
X110558390Y-75808333D02*
X110606009Y-75760714D01*
X110606009Y-75760714D02*
X110701247Y-75713095D01*
X110701247Y-75713095D02*
X110939342Y-75713095D01*
X110939342Y-75713095D02*
X111034580Y-75760714D01*
X111034580Y-75760714D02*
X111082200Y-75808333D01*
X111082200Y-75808333D02*
X111129819Y-75903571D01*
X111129819Y-75903571D02*
X111129819Y-76189285D01*
X111129819Y-76189285D02*
X111082200Y-76284523D01*
X111082200Y-76284523D02*
X111034580Y-76332142D01*
X104583333Y-99704819D02*
X104250000Y-99228628D01*
X104011905Y-99704819D02*
X104011905Y-98704819D01*
X104011905Y-98704819D02*
X104392857Y-98704819D01*
X104392857Y-98704819D02*
X104488095Y-98752438D01*
X104488095Y-98752438D02*
X104535714Y-98800057D01*
X104535714Y-98800057D02*
X104583333Y-98895295D01*
X104583333Y-98895295D02*
X104583333Y-99038152D01*
X104583333Y-99038152D02*
X104535714Y-99133390D01*
X104535714Y-99133390D02*
X104488095Y-99181009D01*
X104488095Y-99181009D02*
X104392857Y-99228628D01*
X104392857Y-99228628D02*
X104011905Y-99228628D01*
X105535714Y-99704819D02*
X104964286Y-99704819D01*
X105250000Y-99704819D02*
X105250000Y-98704819D01*
X105250000Y-98704819D02*
X105154762Y-98847676D01*
X105154762Y-98847676D02*
X105059524Y-98942914D01*
X105059524Y-98942914D02*
X104964286Y-98990533D01*
X128488095Y-98704819D02*
X128488095Y-99514342D01*
X128488095Y-99514342D02*
X128535714Y-99609580D01*
X128535714Y-99609580D02*
X128583333Y-99657200D01*
X128583333Y-99657200D02*
X128678571Y-99704819D01*
X128678571Y-99704819D02*
X128869047Y-99704819D01*
X128869047Y-99704819D02*
X128964285Y-99657200D01*
X128964285Y-99657200D02*
X129011904Y-99609580D01*
X129011904Y-99609580D02*
X129059523Y-99514342D01*
X129059523Y-99514342D02*
X129059523Y-98704819D01*
X130059523Y-99704819D02*
X129488095Y-99704819D01*
X129773809Y-99704819D02*
X129773809Y-98704819D01*
X129773809Y-98704819D02*
X129678571Y-98847676D01*
X129678571Y-98847676D02*
X129583333Y-98942914D01*
X129583333Y-98942914D02*
X129488095Y-98990533D01*
X112083333Y-99609580D02*
X112035714Y-99657200D01*
X112035714Y-99657200D02*
X111892857Y-99704819D01*
X111892857Y-99704819D02*
X111797619Y-99704819D01*
X111797619Y-99704819D02*
X111654762Y-99657200D01*
X111654762Y-99657200D02*
X111559524Y-99561961D01*
X111559524Y-99561961D02*
X111511905Y-99466723D01*
X111511905Y-99466723D02*
X111464286Y-99276247D01*
X111464286Y-99276247D02*
X111464286Y-99133390D01*
X111464286Y-99133390D02*
X111511905Y-98942914D01*
X111511905Y-98942914D02*
X111559524Y-98847676D01*
X111559524Y-98847676D02*
X111654762Y-98752438D01*
X111654762Y-98752438D02*
X111797619Y-98704819D01*
X111797619Y-98704819D02*
X111892857Y-98704819D01*
X111892857Y-98704819D02*
X112035714Y-98752438D01*
X112035714Y-98752438D02*
X112083333Y-98800057D01*
X112464286Y-98800057D02*
X112511905Y-98752438D01*
X112511905Y-98752438D02*
X112607143Y-98704819D01*
X112607143Y-98704819D02*
X112845238Y-98704819D01*
X112845238Y-98704819D02*
X112940476Y-98752438D01*
X112940476Y-98752438D02*
X112988095Y-98800057D01*
X112988095Y-98800057D02*
X113035714Y-98895295D01*
X113035714Y-98895295D02*
X113035714Y-98990533D01*
X113035714Y-98990533D02*
X112988095Y-99133390D01*
X112988095Y-99133390D02*
X112416667Y-99704819D01*
X112416667Y-99704819D02*
X113035714Y-99704819D01*
X101454819Y-84766666D02*
X100978628Y-85099999D01*
X101454819Y-85338094D02*
X100454819Y-85338094D01*
X100454819Y-85338094D02*
X100454819Y-84957142D01*
X100454819Y-84957142D02*
X100502438Y-84861904D01*
X100502438Y-84861904D02*
X100550057Y-84814285D01*
X100550057Y-84814285D02*
X100645295Y-84766666D01*
X100645295Y-84766666D02*
X100788152Y-84766666D01*
X100788152Y-84766666D02*
X100883390Y-84814285D01*
X100883390Y-84814285D02*
X100931009Y-84861904D01*
X100931009Y-84861904D02*
X100978628Y-84957142D01*
X100978628Y-84957142D02*
X100978628Y-85338094D01*
X100550057Y-84385713D02*
X100502438Y-84338094D01*
X100502438Y-84338094D02*
X100454819Y-84242856D01*
X100454819Y-84242856D02*
X100454819Y-84004761D01*
X100454819Y-84004761D02*
X100502438Y-83909523D01*
X100502438Y-83909523D02*
X100550057Y-83861904D01*
X100550057Y-83861904D02*
X100645295Y-83814285D01*
X100645295Y-83814285D02*
X100740533Y-83814285D01*
X100740533Y-83814285D02*
X100883390Y-83861904D01*
X100883390Y-83861904D02*
X101454819Y-84433332D01*
X101454819Y-84433332D02*
X101454819Y-83814285D01*
X102859580Y-81766666D02*
X102907200Y-81814285D01*
X102907200Y-81814285D02*
X102954819Y-81957142D01*
X102954819Y-81957142D02*
X102954819Y-82052380D01*
X102954819Y-82052380D02*
X102907200Y-82195237D01*
X102907200Y-82195237D02*
X102811961Y-82290475D01*
X102811961Y-82290475D02*
X102716723Y-82338094D01*
X102716723Y-82338094D02*
X102526247Y-82385713D01*
X102526247Y-82385713D02*
X102383390Y-82385713D01*
X102383390Y-82385713D02*
X102192914Y-82338094D01*
X102192914Y-82338094D02*
X102097676Y-82290475D01*
X102097676Y-82290475D02*
X102002438Y-82195237D01*
X102002438Y-82195237D02*
X101954819Y-82052380D01*
X101954819Y-82052380D02*
X101954819Y-81957142D01*
X101954819Y-81957142D02*
X102002438Y-81814285D01*
X102002438Y-81814285D02*
X102050057Y-81766666D01*
X101954819Y-81433332D02*
X101954819Y-80766666D01*
X101954819Y-80766666D02*
X102954819Y-81195237D01*
X107978628Y-90476190D02*
X108454819Y-90476190D01*
X107454819Y-90809523D02*
X107978628Y-90476190D01*
X107978628Y-90476190D02*
X107454819Y-90142857D01*
X108454819Y-89285714D02*
X108454819Y-89857142D01*
X108454819Y-89571428D02*
X107454819Y-89571428D01*
X107454819Y-89571428D02*
X107597676Y-89666666D01*
X107597676Y-89666666D02*
X107692914Y-89761904D01*
X107692914Y-89761904D02*
X107740533Y-89857142D01*
X104454819Y-84766666D02*
X103978628Y-85099999D01*
X104454819Y-85338094D02*
X103454819Y-85338094D01*
X103454819Y-85338094D02*
X103454819Y-84957142D01*
X103454819Y-84957142D02*
X103502438Y-84861904D01*
X103502438Y-84861904D02*
X103550057Y-84814285D01*
X103550057Y-84814285D02*
X103645295Y-84766666D01*
X103645295Y-84766666D02*
X103788152Y-84766666D01*
X103788152Y-84766666D02*
X103883390Y-84814285D01*
X103883390Y-84814285D02*
X103931009Y-84861904D01*
X103931009Y-84861904D02*
X103978628Y-84957142D01*
X103978628Y-84957142D02*
X103978628Y-85338094D01*
X103454819Y-84433332D02*
X103454819Y-83814285D01*
X103454819Y-83814285D02*
X103835771Y-84147618D01*
X103835771Y-84147618D02*
X103835771Y-84004761D01*
X103835771Y-84004761D02*
X103883390Y-83909523D01*
X103883390Y-83909523D02*
X103931009Y-83861904D01*
X103931009Y-83861904D02*
X104026247Y-83814285D01*
X104026247Y-83814285D02*
X104264342Y-83814285D01*
X104264342Y-83814285D02*
X104359580Y-83861904D01*
X104359580Y-83861904D02*
X104407200Y-83909523D01*
X104407200Y-83909523D02*
X104454819Y-84004761D01*
X104454819Y-84004761D02*
X104454819Y-84290475D01*
X104454819Y-84290475D02*
X104407200Y-84385713D01*
X104407200Y-84385713D02*
X104359580Y-84433332D01*
X121359580Y-90766666D02*
X121407200Y-90814285D01*
X121407200Y-90814285D02*
X121454819Y-90957142D01*
X121454819Y-90957142D02*
X121454819Y-91052380D01*
X121454819Y-91052380D02*
X121407200Y-91195237D01*
X121407200Y-91195237D02*
X121311961Y-91290475D01*
X121311961Y-91290475D02*
X121216723Y-91338094D01*
X121216723Y-91338094D02*
X121026247Y-91385713D01*
X121026247Y-91385713D02*
X120883390Y-91385713D01*
X120883390Y-91385713D02*
X120692914Y-91338094D01*
X120692914Y-91338094D02*
X120597676Y-91290475D01*
X120597676Y-91290475D02*
X120502438Y-91195237D01*
X120502438Y-91195237D02*
X120454819Y-91052380D01*
X120454819Y-91052380D02*
X120454819Y-90957142D01*
X120454819Y-90957142D02*
X120502438Y-90814285D01*
X120502438Y-90814285D02*
X120550057Y-90766666D01*
X121454819Y-90290475D02*
X121454819Y-90099999D01*
X121454819Y-90099999D02*
X121407200Y-90004761D01*
X121407200Y-90004761D02*
X121359580Y-89957142D01*
X121359580Y-89957142D02*
X121216723Y-89861904D01*
X121216723Y-89861904D02*
X121026247Y-89814285D01*
X121026247Y-89814285D02*
X120645295Y-89814285D01*
X120645295Y-89814285D02*
X120550057Y-89861904D01*
X120550057Y-89861904D02*
X120502438Y-89909523D01*
X120502438Y-89909523D02*
X120454819Y-90004761D01*
X120454819Y-90004761D02*
X120454819Y-90195237D01*
X120454819Y-90195237D02*
X120502438Y-90290475D01*
X120502438Y-90290475D02*
X120550057Y-90338094D01*
X120550057Y-90338094D02*
X120645295Y-90385713D01*
X120645295Y-90385713D02*
X120883390Y-90385713D01*
X120883390Y-90385713D02*
X120978628Y-90338094D01*
X120978628Y-90338094D02*
X121026247Y-90290475D01*
X121026247Y-90290475D02*
X121073866Y-90195237D01*
X121073866Y-90195237D02*
X121073866Y-90004761D01*
X121073866Y-90004761D02*
X121026247Y-89909523D01*
X121026247Y-89909523D02*
X120978628Y-89861904D01*
X120978628Y-89861904D02*
X120883390Y-89814285D01*
X102859580Y-84842857D02*
X102907200Y-84890476D01*
X102907200Y-84890476D02*
X102954819Y-85033333D01*
X102954819Y-85033333D02*
X102954819Y-85128571D01*
X102954819Y-85128571D02*
X102907200Y-85271428D01*
X102907200Y-85271428D02*
X102811961Y-85366666D01*
X102811961Y-85366666D02*
X102716723Y-85414285D01*
X102716723Y-85414285D02*
X102526247Y-85461904D01*
X102526247Y-85461904D02*
X102383390Y-85461904D01*
X102383390Y-85461904D02*
X102192914Y-85414285D01*
X102192914Y-85414285D02*
X102097676Y-85366666D01*
X102097676Y-85366666D02*
X102002438Y-85271428D01*
X102002438Y-85271428D02*
X101954819Y-85128571D01*
X101954819Y-85128571D02*
X101954819Y-85033333D01*
X101954819Y-85033333D02*
X102002438Y-84890476D01*
X102002438Y-84890476D02*
X102050057Y-84842857D01*
X102954819Y-83890476D02*
X102954819Y-84461904D01*
X102954819Y-84176190D02*
X101954819Y-84176190D01*
X101954819Y-84176190D02*
X102097676Y-84271428D01*
X102097676Y-84271428D02*
X102192914Y-84366666D01*
X102192914Y-84366666D02*
X102240533Y-84461904D01*
X102954819Y-82938095D02*
X102954819Y-83509523D01*
X102954819Y-83223809D02*
X101954819Y-83223809D01*
X101954819Y-83223809D02*
X102097676Y-83319047D01*
X102097676Y-83319047D02*
X102192914Y-83414285D01*
X102192914Y-83414285D02*
X102240533Y-83509523D01*
X125833333Y-89354819D02*
X125500000Y-88878628D01*
X125261905Y-89354819D02*
X125261905Y-88354819D01*
X125261905Y-88354819D02*
X125642857Y-88354819D01*
X125642857Y-88354819D02*
X125738095Y-88402438D01*
X125738095Y-88402438D02*
X125785714Y-88450057D01*
X125785714Y-88450057D02*
X125833333Y-88545295D01*
X125833333Y-88545295D02*
X125833333Y-88688152D01*
X125833333Y-88688152D02*
X125785714Y-88783390D01*
X125785714Y-88783390D02*
X125738095Y-88831009D01*
X125738095Y-88831009D02*
X125642857Y-88878628D01*
X125642857Y-88878628D02*
X125261905Y-88878628D01*
X126738095Y-88354819D02*
X126261905Y-88354819D01*
X126261905Y-88354819D02*
X126214286Y-88831009D01*
X126214286Y-88831009D02*
X126261905Y-88783390D01*
X126261905Y-88783390D02*
X126357143Y-88735771D01*
X126357143Y-88735771D02*
X126595238Y-88735771D01*
X126595238Y-88735771D02*
X126690476Y-88783390D01*
X126690476Y-88783390D02*
X126738095Y-88831009D01*
X126738095Y-88831009D02*
X126785714Y-88926247D01*
X126785714Y-88926247D02*
X126785714Y-89164342D01*
X126785714Y-89164342D02*
X126738095Y-89259580D01*
X126738095Y-89259580D02*
X126690476Y-89307200D01*
X126690476Y-89307200D02*
X126595238Y-89354819D01*
X126595238Y-89354819D02*
X126357143Y-89354819D01*
X126357143Y-89354819D02*
X126261905Y-89307200D01*
X126261905Y-89307200D02*
X126214286Y-89259580D01*
X121109580Y-94416666D02*
X121157200Y-94464285D01*
X121157200Y-94464285D02*
X121204819Y-94607142D01*
X121204819Y-94607142D02*
X121204819Y-94702380D01*
X121204819Y-94702380D02*
X121157200Y-94845237D01*
X121157200Y-94845237D02*
X121061961Y-94940475D01*
X121061961Y-94940475D02*
X120966723Y-94988094D01*
X120966723Y-94988094D02*
X120776247Y-95035713D01*
X120776247Y-95035713D02*
X120633390Y-95035713D01*
X120633390Y-95035713D02*
X120442914Y-94988094D01*
X120442914Y-94988094D02*
X120347676Y-94940475D01*
X120347676Y-94940475D02*
X120252438Y-94845237D01*
X120252438Y-94845237D02*
X120204819Y-94702380D01*
X120204819Y-94702380D02*
X120204819Y-94607142D01*
X120204819Y-94607142D02*
X120252438Y-94464285D01*
X120252438Y-94464285D02*
X120300057Y-94416666D01*
X120204819Y-93559523D02*
X120204819Y-93749999D01*
X120204819Y-93749999D02*
X120252438Y-93845237D01*
X120252438Y-93845237D02*
X120300057Y-93892856D01*
X120300057Y-93892856D02*
X120442914Y-93988094D01*
X120442914Y-93988094D02*
X120633390Y-94035713D01*
X120633390Y-94035713D02*
X121014342Y-94035713D01*
X121014342Y-94035713D02*
X121109580Y-93988094D01*
X121109580Y-93988094D02*
X121157200Y-93940475D01*
X121157200Y-93940475D02*
X121204819Y-93845237D01*
X121204819Y-93845237D02*
X121204819Y-93654761D01*
X121204819Y-93654761D02*
X121157200Y-93559523D01*
X121157200Y-93559523D02*
X121109580Y-93511904D01*
X121109580Y-93511904D02*
X121014342Y-93464285D01*
X121014342Y-93464285D02*
X120776247Y-93464285D01*
X120776247Y-93464285D02*
X120681009Y-93511904D01*
X120681009Y-93511904D02*
X120633390Y-93559523D01*
X120633390Y-93559523D02*
X120585771Y-93654761D01*
X120585771Y-93654761D02*
X120585771Y-93845237D01*
X120585771Y-93845237D02*
X120633390Y-93940475D01*
X120633390Y-93940475D02*
X120681009Y-93988094D01*
X120681009Y-93988094D02*
X120776247Y-94035713D01*
X126254819Y-80266666D02*
X125778628Y-80599999D01*
X126254819Y-80838094D02*
X125254819Y-80838094D01*
X125254819Y-80838094D02*
X125254819Y-80457142D01*
X125254819Y-80457142D02*
X125302438Y-80361904D01*
X125302438Y-80361904D02*
X125350057Y-80314285D01*
X125350057Y-80314285D02*
X125445295Y-80266666D01*
X125445295Y-80266666D02*
X125588152Y-80266666D01*
X125588152Y-80266666D02*
X125683390Y-80314285D01*
X125683390Y-80314285D02*
X125731009Y-80361904D01*
X125731009Y-80361904D02*
X125778628Y-80457142D01*
X125778628Y-80457142D02*
X125778628Y-80838094D01*
X125254819Y-79409523D02*
X125254819Y-79599999D01*
X125254819Y-79599999D02*
X125302438Y-79695237D01*
X125302438Y-79695237D02*
X125350057Y-79742856D01*
X125350057Y-79742856D02*
X125492914Y-79838094D01*
X125492914Y-79838094D02*
X125683390Y-79885713D01*
X125683390Y-79885713D02*
X126064342Y-79885713D01*
X126064342Y-79885713D02*
X126159580Y-79838094D01*
X126159580Y-79838094D02*
X126207200Y-79790475D01*
X126207200Y-79790475D02*
X126254819Y-79695237D01*
X126254819Y-79695237D02*
X126254819Y-79504761D01*
X126254819Y-79504761D02*
X126207200Y-79409523D01*
X126207200Y-79409523D02*
X126159580Y-79361904D01*
X126159580Y-79361904D02*
X126064342Y-79314285D01*
X126064342Y-79314285D02*
X125826247Y-79314285D01*
X125826247Y-79314285D02*
X125731009Y-79361904D01*
X125731009Y-79361904D02*
X125683390Y-79409523D01*
X125683390Y-79409523D02*
X125635771Y-79504761D01*
X125635771Y-79504761D02*
X125635771Y-79695237D01*
X125635771Y-79695237D02*
X125683390Y-79790475D01*
X125683390Y-79790475D02*
X125731009Y-79838094D01*
X125731009Y-79838094D02*
X125826247Y-79885713D01*
X122859580Y-94416666D02*
X122907200Y-94464285D01*
X122907200Y-94464285D02*
X122954819Y-94607142D01*
X122954819Y-94607142D02*
X122954819Y-94702380D01*
X122954819Y-94702380D02*
X122907200Y-94845237D01*
X122907200Y-94845237D02*
X122811961Y-94940475D01*
X122811961Y-94940475D02*
X122716723Y-94988094D01*
X122716723Y-94988094D02*
X122526247Y-95035713D01*
X122526247Y-95035713D02*
X122383390Y-95035713D01*
X122383390Y-95035713D02*
X122192914Y-94988094D01*
X122192914Y-94988094D02*
X122097676Y-94940475D01*
X122097676Y-94940475D02*
X122002438Y-94845237D01*
X122002438Y-94845237D02*
X121954819Y-94702380D01*
X121954819Y-94702380D02*
X121954819Y-94607142D01*
X121954819Y-94607142D02*
X122002438Y-94464285D01*
X122002438Y-94464285D02*
X122050057Y-94416666D01*
X121954819Y-93511904D02*
X121954819Y-93988094D01*
X121954819Y-93988094D02*
X122431009Y-94035713D01*
X122431009Y-94035713D02*
X122383390Y-93988094D01*
X122383390Y-93988094D02*
X122335771Y-93892856D01*
X122335771Y-93892856D02*
X122335771Y-93654761D01*
X122335771Y-93654761D02*
X122383390Y-93559523D01*
X122383390Y-93559523D02*
X122431009Y-93511904D01*
X122431009Y-93511904D02*
X122526247Y-93464285D01*
X122526247Y-93464285D02*
X122764342Y-93464285D01*
X122764342Y-93464285D02*
X122859580Y-93511904D01*
X122859580Y-93511904D02*
X122907200Y-93559523D01*
X122907200Y-93559523D02*
X122954819Y-93654761D01*
X122954819Y-93654761D02*
X122954819Y-93892856D01*
X122954819Y-93892856D02*
X122907200Y-93988094D01*
X122907200Y-93988094D02*
X122859580Y-94035713D01*
X127754819Y-80266666D02*
X127278628Y-80599999D01*
X127754819Y-80838094D02*
X126754819Y-80838094D01*
X126754819Y-80838094D02*
X126754819Y-80457142D01*
X126754819Y-80457142D02*
X126802438Y-80361904D01*
X126802438Y-80361904D02*
X126850057Y-80314285D01*
X126850057Y-80314285D02*
X126945295Y-80266666D01*
X126945295Y-80266666D02*
X127088152Y-80266666D01*
X127088152Y-80266666D02*
X127183390Y-80314285D01*
X127183390Y-80314285D02*
X127231009Y-80361904D01*
X127231009Y-80361904D02*
X127278628Y-80457142D01*
X127278628Y-80457142D02*
X127278628Y-80838094D01*
X126754819Y-79933332D02*
X126754819Y-79266666D01*
X126754819Y-79266666D02*
X127754819Y-79695237D01*
X113273810Y-91154819D02*
X113273810Y-90154819D01*
X114321428Y-91059580D02*
X114273809Y-91107200D01*
X114273809Y-91107200D02*
X114130952Y-91154819D01*
X114130952Y-91154819D02*
X114035714Y-91154819D01*
X114035714Y-91154819D02*
X113892857Y-91107200D01*
X113892857Y-91107200D02*
X113797619Y-91011961D01*
X113797619Y-91011961D02*
X113750000Y-90916723D01*
X113750000Y-90916723D02*
X113702381Y-90726247D01*
X113702381Y-90726247D02*
X113702381Y-90583390D01*
X113702381Y-90583390D02*
X113750000Y-90392914D01*
X113750000Y-90392914D02*
X113797619Y-90297676D01*
X113797619Y-90297676D02*
X113892857Y-90202438D01*
X113892857Y-90202438D02*
X114035714Y-90154819D01*
X114035714Y-90154819D02*
X114130952Y-90154819D01*
X114130952Y-90154819D02*
X114273809Y-90202438D01*
X114273809Y-90202438D02*
X114321428Y-90250057D01*
X115273809Y-91154819D02*
X114702381Y-91154819D01*
X114988095Y-91154819D02*
X114988095Y-90154819D01*
X114988095Y-90154819D02*
X114892857Y-90297676D01*
X114892857Y-90297676D02*
X114797619Y-90392914D01*
X114797619Y-90392914D02*
X114702381Y-90440533D01*
X111859580Y-92392857D02*
X111907200Y-92440476D01*
X111907200Y-92440476D02*
X111954819Y-92583333D01*
X111954819Y-92583333D02*
X111954819Y-92678571D01*
X111954819Y-92678571D02*
X111907200Y-92821428D01*
X111907200Y-92821428D02*
X111811961Y-92916666D01*
X111811961Y-92916666D02*
X111716723Y-92964285D01*
X111716723Y-92964285D02*
X111526247Y-93011904D01*
X111526247Y-93011904D02*
X111383390Y-93011904D01*
X111383390Y-93011904D02*
X111192914Y-92964285D01*
X111192914Y-92964285D02*
X111097676Y-92916666D01*
X111097676Y-92916666D02*
X111002438Y-92821428D01*
X111002438Y-92821428D02*
X110954819Y-92678571D01*
X110954819Y-92678571D02*
X110954819Y-92583333D01*
X110954819Y-92583333D02*
X111002438Y-92440476D01*
X111002438Y-92440476D02*
X111050057Y-92392857D01*
X111954819Y-91440476D02*
X111954819Y-92011904D01*
X111954819Y-91726190D02*
X110954819Y-91726190D01*
X110954819Y-91726190D02*
X111097676Y-91821428D01*
X111097676Y-91821428D02*
X111192914Y-91916666D01*
X111192914Y-91916666D02*
X111240533Y-92011904D01*
X111050057Y-91059523D02*
X111002438Y-91011904D01*
X111002438Y-91011904D02*
X110954819Y-90916666D01*
X110954819Y-90916666D02*
X110954819Y-90678571D01*
X110954819Y-90678571D02*
X111002438Y-90583333D01*
X111002438Y-90583333D02*
X111050057Y-90535714D01*
X111050057Y-90535714D02*
X111145295Y-90488095D01*
X111145295Y-90488095D02*
X111240533Y-90488095D01*
X111240533Y-90488095D02*
X111383390Y-90535714D01*
X111383390Y-90535714D02*
X111954819Y-91107142D01*
X111954819Y-91107142D02*
X111954819Y-90488095D01*
X135159580Y-92342857D02*
X135207200Y-92390476D01*
X135207200Y-92390476D02*
X135254819Y-92533333D01*
X135254819Y-92533333D02*
X135254819Y-92628571D01*
X135254819Y-92628571D02*
X135207200Y-92771428D01*
X135207200Y-92771428D02*
X135111961Y-92866666D01*
X135111961Y-92866666D02*
X135016723Y-92914285D01*
X135016723Y-92914285D02*
X134826247Y-92961904D01*
X134826247Y-92961904D02*
X134683390Y-92961904D01*
X134683390Y-92961904D02*
X134492914Y-92914285D01*
X134492914Y-92914285D02*
X134397676Y-92866666D01*
X134397676Y-92866666D02*
X134302438Y-92771428D01*
X134302438Y-92771428D02*
X134254819Y-92628571D01*
X134254819Y-92628571D02*
X134254819Y-92533333D01*
X134254819Y-92533333D02*
X134302438Y-92390476D01*
X134302438Y-92390476D02*
X134350057Y-92342857D01*
X135254819Y-91390476D02*
X135254819Y-91961904D01*
X135254819Y-91676190D02*
X134254819Y-91676190D01*
X134254819Y-91676190D02*
X134397676Y-91771428D01*
X134397676Y-91771428D02*
X134492914Y-91866666D01*
X134492914Y-91866666D02*
X134540533Y-91961904D01*
X134254819Y-90771428D02*
X134254819Y-90676190D01*
X134254819Y-90676190D02*
X134302438Y-90580952D01*
X134302438Y-90580952D02*
X134350057Y-90533333D01*
X134350057Y-90533333D02*
X134445295Y-90485714D01*
X134445295Y-90485714D02*
X134635771Y-90438095D01*
X134635771Y-90438095D02*
X134873866Y-90438095D01*
X134873866Y-90438095D02*
X135064342Y-90485714D01*
X135064342Y-90485714D02*
X135159580Y-90533333D01*
X135159580Y-90533333D02*
X135207200Y-90580952D01*
X135207200Y-90580952D02*
X135254819Y-90676190D01*
X135254819Y-90676190D02*
X135254819Y-90771428D01*
X135254819Y-90771428D02*
X135207200Y-90866666D01*
X135207200Y-90866666D02*
X135159580Y-90914285D01*
X135159580Y-90914285D02*
X135064342Y-90961904D01*
X135064342Y-90961904D02*
X134873866Y-91009523D01*
X134873866Y-91009523D02*
X134635771Y-91009523D01*
X134635771Y-91009523D02*
X134445295Y-90961904D01*
X134445295Y-90961904D02*
X134350057Y-90914285D01*
X134350057Y-90914285D02*
X134302438Y-90866666D01*
X134302438Y-90866666D02*
X134254819Y-90771428D01*
X125833333Y-87854819D02*
X125500000Y-87378628D01*
X125261905Y-87854819D02*
X125261905Y-86854819D01*
X125261905Y-86854819D02*
X125642857Y-86854819D01*
X125642857Y-86854819D02*
X125738095Y-86902438D01*
X125738095Y-86902438D02*
X125785714Y-86950057D01*
X125785714Y-86950057D02*
X125833333Y-87045295D01*
X125833333Y-87045295D02*
X125833333Y-87188152D01*
X125833333Y-87188152D02*
X125785714Y-87283390D01*
X125785714Y-87283390D02*
X125738095Y-87331009D01*
X125738095Y-87331009D02*
X125642857Y-87378628D01*
X125642857Y-87378628D02*
X125261905Y-87378628D01*
X126690476Y-87188152D02*
X126690476Y-87854819D01*
X126452381Y-86807200D02*
X126214286Y-87521485D01*
X126214286Y-87521485D02*
X126833333Y-87521485D01*
X108333333Y-99609580D02*
X108285714Y-99657200D01*
X108285714Y-99657200D02*
X108142857Y-99704819D01*
X108142857Y-99704819D02*
X108047619Y-99704819D01*
X108047619Y-99704819D02*
X107904762Y-99657200D01*
X107904762Y-99657200D02*
X107809524Y-99561961D01*
X107809524Y-99561961D02*
X107761905Y-99466723D01*
X107761905Y-99466723D02*
X107714286Y-99276247D01*
X107714286Y-99276247D02*
X107714286Y-99133390D01*
X107714286Y-99133390D02*
X107761905Y-98942914D01*
X107761905Y-98942914D02*
X107809524Y-98847676D01*
X107809524Y-98847676D02*
X107904762Y-98752438D01*
X107904762Y-98752438D02*
X108047619Y-98704819D01*
X108047619Y-98704819D02*
X108142857Y-98704819D01*
X108142857Y-98704819D02*
X108285714Y-98752438D01*
X108285714Y-98752438D02*
X108333333Y-98800057D01*
X109285714Y-99704819D02*
X108714286Y-99704819D01*
X109000000Y-99704819D02*
X109000000Y-98704819D01*
X109000000Y-98704819D02*
X108904762Y-98847676D01*
X108904762Y-98847676D02*
X108809524Y-98942914D01*
X108809524Y-98942914D02*
X108714286Y-98990533D01*
X115833333Y-99609580D02*
X115785714Y-99657200D01*
X115785714Y-99657200D02*
X115642857Y-99704819D01*
X115642857Y-99704819D02*
X115547619Y-99704819D01*
X115547619Y-99704819D02*
X115404762Y-99657200D01*
X115404762Y-99657200D02*
X115309524Y-99561961D01*
X115309524Y-99561961D02*
X115261905Y-99466723D01*
X115261905Y-99466723D02*
X115214286Y-99276247D01*
X115214286Y-99276247D02*
X115214286Y-99133390D01*
X115214286Y-99133390D02*
X115261905Y-98942914D01*
X115261905Y-98942914D02*
X115309524Y-98847676D01*
X115309524Y-98847676D02*
X115404762Y-98752438D01*
X115404762Y-98752438D02*
X115547619Y-98704819D01*
X115547619Y-98704819D02*
X115642857Y-98704819D01*
X115642857Y-98704819D02*
X115785714Y-98752438D01*
X115785714Y-98752438D02*
X115833333Y-98800057D01*
X116166667Y-98704819D02*
X116785714Y-98704819D01*
X116785714Y-98704819D02*
X116452381Y-99085771D01*
X116452381Y-99085771D02*
X116595238Y-99085771D01*
X116595238Y-99085771D02*
X116690476Y-99133390D01*
X116690476Y-99133390D02*
X116738095Y-99181009D01*
X116738095Y-99181009D02*
X116785714Y-99276247D01*
X116785714Y-99276247D02*
X116785714Y-99514342D01*
X116785714Y-99514342D02*
X116738095Y-99609580D01*
X116738095Y-99609580D02*
X116690476Y-99657200D01*
X116690476Y-99657200D02*
X116595238Y-99704819D01*
X116595238Y-99704819D02*
X116309524Y-99704819D01*
X116309524Y-99704819D02*
X116214286Y-99657200D01*
X116214286Y-99657200D02*
X116166667Y-99609580D01*
X124359580Y-94416666D02*
X124407200Y-94464285D01*
X124407200Y-94464285D02*
X124454819Y-94607142D01*
X124454819Y-94607142D02*
X124454819Y-94702380D01*
X124454819Y-94702380D02*
X124407200Y-94845237D01*
X124407200Y-94845237D02*
X124311961Y-94940475D01*
X124311961Y-94940475D02*
X124216723Y-94988094D01*
X124216723Y-94988094D02*
X124026247Y-95035713D01*
X124026247Y-95035713D02*
X123883390Y-95035713D01*
X123883390Y-95035713D02*
X123692914Y-94988094D01*
X123692914Y-94988094D02*
X123597676Y-94940475D01*
X123597676Y-94940475D02*
X123502438Y-94845237D01*
X123502438Y-94845237D02*
X123454819Y-94702380D01*
X123454819Y-94702380D02*
X123454819Y-94607142D01*
X123454819Y-94607142D02*
X123502438Y-94464285D01*
X123502438Y-94464285D02*
X123550057Y-94416666D01*
X123788152Y-93559523D02*
X124454819Y-93559523D01*
X123407200Y-93797618D02*
X124121485Y-94035713D01*
X124121485Y-94035713D02*
X124121485Y-93416666D01*
X104359580Y-81766666D02*
X104407200Y-81814285D01*
X104407200Y-81814285D02*
X104454819Y-81957142D01*
X104454819Y-81957142D02*
X104454819Y-82052380D01*
X104454819Y-82052380D02*
X104407200Y-82195237D01*
X104407200Y-82195237D02*
X104311961Y-82290475D01*
X104311961Y-82290475D02*
X104216723Y-82338094D01*
X104216723Y-82338094D02*
X104026247Y-82385713D01*
X104026247Y-82385713D02*
X103883390Y-82385713D01*
X103883390Y-82385713D02*
X103692914Y-82338094D01*
X103692914Y-82338094D02*
X103597676Y-82290475D01*
X103597676Y-82290475D02*
X103502438Y-82195237D01*
X103502438Y-82195237D02*
X103454819Y-82052380D01*
X103454819Y-82052380D02*
X103454819Y-81957142D01*
X103454819Y-81957142D02*
X103502438Y-81814285D01*
X103502438Y-81814285D02*
X103550057Y-81766666D01*
X103883390Y-81195237D02*
X103835771Y-81290475D01*
X103835771Y-81290475D02*
X103788152Y-81338094D01*
X103788152Y-81338094D02*
X103692914Y-81385713D01*
X103692914Y-81385713D02*
X103645295Y-81385713D01*
X103645295Y-81385713D02*
X103550057Y-81338094D01*
X103550057Y-81338094D02*
X103502438Y-81290475D01*
X103502438Y-81290475D02*
X103454819Y-81195237D01*
X103454819Y-81195237D02*
X103454819Y-81004761D01*
X103454819Y-81004761D02*
X103502438Y-80909523D01*
X103502438Y-80909523D02*
X103550057Y-80861904D01*
X103550057Y-80861904D02*
X103645295Y-80814285D01*
X103645295Y-80814285D02*
X103692914Y-80814285D01*
X103692914Y-80814285D02*
X103788152Y-80861904D01*
X103788152Y-80861904D02*
X103835771Y-80909523D01*
X103835771Y-80909523D02*
X103883390Y-81004761D01*
X103883390Y-81004761D02*
X103883390Y-81195237D01*
X103883390Y-81195237D02*
X103931009Y-81290475D01*
X103931009Y-81290475D02*
X103978628Y-81338094D01*
X103978628Y-81338094D02*
X104073866Y-81385713D01*
X104073866Y-81385713D02*
X104264342Y-81385713D01*
X104264342Y-81385713D02*
X104359580Y-81338094D01*
X104359580Y-81338094D02*
X104407200Y-81290475D01*
X104407200Y-81290475D02*
X104454819Y-81195237D01*
X104454819Y-81195237D02*
X104454819Y-81004761D01*
X104454819Y-81004761D02*
X104407200Y-80909523D01*
X104407200Y-80909523D02*
X104359580Y-80861904D01*
X104359580Y-80861904D02*
X104264342Y-80814285D01*
X104264342Y-80814285D02*
X104073866Y-80814285D01*
X104073866Y-80814285D02*
X103978628Y-80861904D01*
X103978628Y-80861904D02*
X103931009Y-80909523D01*
X103931009Y-80909523D02*
X103883390Y-81004761D01*
D11*
%TO.C,C15*%
X112635000Y-76828733D02*
X112635000Y-77121267D01*
X111615000Y-76828733D02*
X111615000Y-77121267D01*
%TO.C,C14*%
X115145000Y-76828733D02*
X115145000Y-77121267D01*
X114125000Y-76828733D02*
X114125000Y-77121267D01*
%TO.C,C13*%
X117655000Y-76828733D02*
X117655000Y-77121267D01*
X116635000Y-76828733D02*
X116635000Y-77121267D01*
%TO.C,TP2*%
X135325000Y-77175000D02*
G75*
G02*
X132425000Y-77175000I-1450000J0D01*
G01*
X132425000Y-77175000D02*
G75*
G02*
X135325000Y-77175000I1450000J0D01*
G01*
%TO.C,R1*%
X105004724Y-98522500D02*
X104495276Y-98522500D01*
X105004724Y-97477500D02*
X104495276Y-97477500D01*
%TO.C,U1*%
X133350000Y-98160000D02*
X127340000Y-98160000D01*
X131100000Y-91340000D02*
X127340000Y-91340000D01*
X127340000Y-98160000D02*
X127340000Y-96900000D01*
X127340000Y-91340000D02*
X127340000Y-92600000D01*
%TO.C,C2*%
X112396267Y-98510000D02*
X112103733Y-98510000D01*
X112396267Y-97490000D02*
X112103733Y-97490000D01*
%TO.C,R2*%
X100977500Y-94254724D02*
X100977500Y-93745276D01*
X102022500Y-94254724D02*
X102022500Y-93745276D01*
%TO.C,C7*%
X102490000Y-90396267D02*
X102490000Y-90103733D01*
X103510000Y-90396267D02*
X103510000Y-90103733D01*
%TO.C,Y1*%
X110150000Y-91300000D02*
X105850000Y-91300000D01*
X105850000Y-91300000D02*
X105850000Y-96700000D01*
%TO.C,R3*%
X105022500Y-93745276D02*
X105022500Y-94254724D01*
X103977500Y-93745276D02*
X103977500Y-94254724D01*
%TO.C,C9*%
X118990000Y-90746267D02*
X118990000Y-90453733D01*
X120010000Y-90746267D02*
X120010000Y-90453733D01*
%TO.C,C11*%
X103510000Y-93853733D02*
X103510000Y-94146267D01*
X102490000Y-93853733D02*
X102490000Y-94146267D01*
%TO.C,R5*%
X125832379Y-90495000D02*
X126167621Y-90495000D01*
X125832379Y-91255000D02*
X126167621Y-91255000D01*
%TO.C,C6*%
X121260000Y-97103733D02*
X121260000Y-97396267D01*
X120240000Y-97103733D02*
X120240000Y-97396267D01*
%TO.C,R6*%
X128805000Y-79932379D02*
X128805000Y-80267621D01*
X128045000Y-79932379D02*
X128045000Y-80267621D01*
%TO.C,C5*%
X123010000Y-97103733D02*
X123010000Y-97396267D01*
X121990000Y-97103733D02*
X121990000Y-97396267D01*
%TO.C,R7*%
X129605000Y-79932379D02*
X129605000Y-80267621D01*
X128845000Y-79932379D02*
X128845000Y-80267621D01*
%TO.C,IC1*%
X113890000Y-96110000D02*
X113890000Y-95635000D01*
X114365000Y-91890000D02*
X113890000Y-91890000D01*
X114365000Y-96110000D02*
X113890000Y-96110000D01*
X117635000Y-91890000D02*
X118110000Y-91890000D01*
X117635000Y-96110000D02*
X118110000Y-96110000D01*
X118110000Y-91890000D02*
X118110000Y-92365000D01*
X118110000Y-96110000D02*
X118110000Y-95635000D01*
%TO.C,C12*%
X112010000Y-94853733D02*
X112010000Y-95146267D01*
X110990000Y-94853733D02*
X110990000Y-95146267D01*
%TO.C,C10*%
X135260000Y-94603733D02*
X135260000Y-94896267D01*
X134240000Y-94603733D02*
X134240000Y-94896267D01*
%TO.C,R4*%
X125832379Y-89695000D02*
X126167621Y-89695000D01*
X125832379Y-90455000D02*
X126167621Y-90455000D01*
%TO.C,C1*%
X108646267Y-98510000D02*
X108353733Y-98510000D01*
X108646267Y-97490000D02*
X108353733Y-97490000D01*
%TO.C,C3*%
X115853733Y-97490000D02*
X116146267Y-97490000D01*
X115853733Y-98510000D02*
X116146267Y-98510000D01*
%TO.C,C4*%
X124510000Y-97103733D02*
X124510000Y-97396267D01*
X123490000Y-97103733D02*
X123490000Y-97396267D01*
%TO.C,C8*%
X103990000Y-90396267D02*
X103990000Y-90103733D01*
X105010000Y-90396267D02*
X105010000Y-90103733D01*
%TD*%
M02*
