M48
; DRILL file {KiCad 8.0.3} date 2024-06-23T17:05:02+0200
; FORMAT={-:-/ absolute / inch / decimal}
; #@! TF.CreationDate,2024-06-23T17:05:02+02:00
; #@! TF.GenerationSoftware,Kicad,Pcbnew,8.0.3
; #@! TF.FileFunction,Plated,1,2,PTH
FMAT,2
INCH
; #@! TA.AperFunction,Plated,PTH,ViaDrill
T1C0.0157
; #@! TA.AperFunction,Plated,PTH,ComponentDrill
T2C0.0197
; #@! TA.AperFunction,Plated,PTH,ComponentDrill
T3C0.0276
; #@! TA.AperFunction,Plated,PTH,ComponentDrill
T4C0.0295
; #@! TA.AperFunction,Plated,PTH,ViaDrill
T5C0.0394
; #@! TA.AperFunction,Plated,PTH,ComponentDrill
T6C0.0472
%
G90
G05
T1
X3.9685Y-3.1102
X3.9764Y-3.3819
X4.0118Y-3.1378
X4.0118Y-3.3465
X4.0276Y-3.4331
X4.0551Y-3.4646
X4.0551Y-3.7795
X4.0591Y-3.1378
X4.063Y-3.3976
X4.0945Y-2.9843
X4.0984Y-3.1142
X4.1142Y-3.4646
X4.1142Y-3.7795
X4.122Y-3.0276
X4.122Y-3.0748
X4.2028Y-3.8287
X4.3504Y-3.6417
X4.3898Y-3.8189
X4.4134Y-3.1102
X4.4783Y-3.6122
X4.4783Y-3.7894
X4.5118Y-3.1102
X4.5768Y-3.5728
X4.5768Y-3.8189
X4.6102Y-3.1102
X4.6555Y-3.6122
X4.6555Y-3.7894
X4.6811Y-2.9961
X4.7047Y-3.4783
X4.7047Y-3.8583
X4.7244Y-2.9961
X4.9311Y-3.8583
X5.2165Y-3.878
X5.2953Y-3.8091
X5.3051Y-3.6417
T2
X5.1772Y-3.1988
X5.1772Y-3.248
X5.1772Y-3.2972
X5.1772Y-3.3465
X5.1772Y-3.3957
X5.1772Y-3.4449
X5.1772Y-3.4941
T3
X4.1476Y-3.3563
T4
X4.1476Y-3.2579
X4.187Y-3.1791
X4.187Y-3.435
X4.2264Y-3.2579
X4.2264Y-3.3563
X4.2657Y-3.1791
X4.2657Y-3.435
X4.3051Y-3.2579
X4.3051Y-3.3563
X4.3445Y-3.1791
X4.3445Y-3.435
X4.3839Y-3.2579
X4.3839Y-3.3563
X4.4232Y-3.1791
X4.4232Y-3.435
X4.4626Y-3.2579
X4.4626Y-3.3563
X4.502Y-3.1791
X4.502Y-3.435
X4.5413Y-3.2579
X4.5413Y-3.3563
X4.6594Y-3.1791
X4.6594Y-3.435
X4.6988Y-3.2579
X4.6988Y-3.3563
X4.7382Y-3.1791
X4.7382Y-3.435
X4.7776Y-3.2579
X4.7776Y-3.3563
X4.8169Y-3.1791
X4.8169Y-3.435
X4.8563Y-3.2579
X4.8563Y-3.3563
X4.8957Y-3.1791
X4.8957Y-3.435
T5
X4.5689Y-3.6988
T6
X5.1575Y-3.0394
X5.2707Y-3.0384
M30
